<?xml version="1.0" standalone="no"?>
<!DOCTYPE svg PUBLIC "-//W3C//DTD SVG 20010904//EN"
 "http://www.w3.org/TR/2001/REC-SVG-20010904/DTD/svg10.dtd">
<svg version="1.0" xmlns="http://www.w3.org/2000/svg"
 width="953.000000pt" height="953.000000pt" viewBox="0 0 953.000000 953.000000"
 preserveAspectRatio="xMidYMid meet">

<g transform="translate(0.000000,953.000000) scale(0.100000,-0.100000)"
fill="#000000" stroke="none">
<path d="M4515 9523 c-267 -14 -626 -68 -891 -133 -1031 -255 -1938 -841
-2608 -1685 -104 -131 -289 -406 -381 -565 -97 -168 -224 -431 -298 -620 -72
-183 -157 -439 -157 -475 0 -12 11 -34 25 -48 15 -14 22 -28 16 -31 -5 -4 -12
-2 -16 4 -9 15 -25 12 -25 -5 0 -8 6 -15 14 -15 22 0 27 -27 5 -33 -11 -3 -19
-14 -19 -25 0 -11 -7 -22 -15 -26 -8 -3 -15 -1 -15 4 0 6 -4 10 -8 10 -16 0
-79 -337 -112 -590 -25 -192 -38 -630 -20 -630 17 0 29 46 23 83 -5 31 -2 36
28 51 28 14 41 15 85 5 64 -14 98 -54 98 -111 1 -22 5 -38 12 -38 7 0 25 -13
42 -28 16 -16 51 -37 76 -47 36 -15 48 -26 57 -52 13 -40 5 -70 -14 -55 -6 5
-22 8 -34 6 -12 -2 -25 1 -29 8 -5 7 1 9 20 6 20 -4 29 0 37 15 10 18 9 19
-20 14 -18 -4 -31 -2 -31 3 0 6 5 10 10 10 6 0 10 4 10 9 0 5 -15 8 -32 7 -22
-1 -34 -7 -36 -19 -3 -13 -14 -17 -53 -17 -37 0 -49 -4 -49 -15 0 -8 -7 -15
-15 -15 -8 0 -15 7 -15 15 0 19 -7 19 -27 -1 -13 -13 -14 -17 -3 -24 20 -12
-5 -40 -35 -40 -12 0 -28 -7 -35 -15 -7 -8 -16 -13 -20 -10 -13 8 -40 -6 -40
-21 0 -18 32 -34 69 -34 47 0 37 -18 -11 -22 l-43 -3 -1 -52 c-1 -38 2 -53 12
-53 7 0 16 5 19 10 8 13 42 13 51 -1 8 -14 -47 -60 -65 -54 -16 6 -13 -16 26
-235 210 -1182 864 -2254 1809 -2967 226 -170 482 -332 695 -439 77 -38 110
-50 105 -39 -3 9 -6 23 -6 31 0 8 -7 14 -16 14 -12 0 -15 7 -12 30 3 16 1 30
-4 30 -17 0 -7 28 22 55 31 29 40 70 18 78 -10 3 -10 9 1 30 15 28 50 42 65
27 6 -6 15 -10 21 -10 5 0 1 7 -9 15 -11 8 -18 16 -15 18 29 21 62 37 79 37
11 0 20 4 20 9 0 5 8 12 18 15 11 4 25 18 32 31 7 14 28 34 47 45 18 10 33 27
33 37 0 10 7 26 15 37 12 16 19 17 55 8 37 -9 54 -2 30 13 -5 3 -10 10 -10 16
0 16 21 10 39 -13 16 -20 21 -20 49 -9 17 7 36 10 42 6 6 -4 17 -1 25 5 8 6
23 9 35 5 15 -5 20 -15 20 -41 0 -42 25 -47 33 -5 3 16 13 31 21 34 27 10 76
-14 92 -45 10 -20 20 -28 31 -24 9 4 25 -1 35 -11 17 -15 21 -15 29 -3 8 13
12 11 26 -7 19 -27 33 -30 33 -5 0 9 12 30 25 45 24 27 26 27 43 11 16 -17 17
-17 20 3 3 17 10 21 38 20 19 -1 34 -5 34 -9 0 -5 11 -6 23 -3 29 8 57 -29 57
-75 0 -22 5 -30 18 -30 23 0 54 51 35 57 -7 3 -13 12 -13 21 1 14 3 14 16 -3
12 -17 16 -18 24 -5 5 8 6 27 3 42 -3 17 -1 28 6 28 6 0 11 -5 11 -11 0 -8 5
-7 15 1 11 10 19 10 27 2 6 -6 17 -8 24 -5 8 3 14 -1 14 -8 1 -22 47 -73 54
-60 4 6 0 18 -9 27 -9 9 -15 23 -13 32 4 22 28 27 28 7 0 -13 5 -15 18 -10 9
4 29 10 44 12 16 3 25 10 22 17 -3 8 6 13 28 14 43 1 88 -17 88 -34 0 -8 5
-14 10 -14 6 0 10 7 10 15 0 8 -4 15 -10 15 -5 0 -10 4 -10 9 0 16 54 19 74 5
32 -22 49 -18 42 11 -7 29 6 32 44 10 31 -18 41 -18 39 -2 -4 33 1 36 37 21
41 -17 54 -12 30 11 -22 23 -20 35 7 35 13 0 32 9 43 21 14 15 27 20 49 16 27
-4 31 -2 33 20 2 26 71 111 104 127 10 5 18 20 18 33 0 13 7 26 15 29 8 4 13
10 10 14 -3 5 -1 11 5 15 5 3 10 17 10 30 0 18 4 22 20 18 18 -5 20 0 20 51 0
31 -4 56 -10 56 -5 0 -10 -11 -10 -25 0 -14 -4 -25 -10 -25 -5 0 -10 -11 -10
-23 0 -24 -28 -57 -48 -57 -6 0 -18 10 -26 22 -9 12 -19 18 -23 14 -4 -4 -3
-10 3 -14 19 -12 27 -52 14 -67 -14 -17 -31 -10 -24 9 3 7 -2 16 -10 19 -9 4
-16 13 -16 21 0 8 -5 16 -12 18 -14 5 21 48 39 48 28 0 11 20 -23 26 -33 6
-36 9 -30 34 7 39 -19 61 -39 34 -11 -16 -16 -17 -27 -5 -10 11 -10 14 0 18 6
3 12 9 12 15 0 6 -7 8 -15 4 -22 -8 -43 20 -41 56 2 37 -20 70 -34 49 -5 -9
-13 -5 -29 15 -21 26 -22 27 -64 14 -61 -20 -87 -39 -87 -65 0 -28 -17 -43
-60 -51 -24 -5 -36 -3 -44 8 -7 9 -22 18 -34 20 -13 1 -21 7 -20 11 4 11 -44
37 -54 31 -5 -3 -8 -18 -8 -34 0 -35 -16 -47 -38 -27 -9 7 -24 17 -33 20 -9 3
-19 15 -22 27 -4 16 -2 20 9 16 18 -7 18 18 0 33 -17 14 -76 3 -83 -16 -12
-30 -113 13 -113 48 0 14 -55 2 -92 -19 -25 -15 -29 -14 -46 1 -10 9 -27 17
-38 17 -11 0 -25 5 -31 11 -7 7 -15 6 -27 -6 -11 -11 -29 -15 -58 -13 l-43 3
28 14 c31 16 33 26 13 47 -15 15 -46 19 -46 7 0 -11 -52 -34 -59 -27 -3 3 1
10 9 15 11 8 12 12 3 16 -7 2 -13 9 -13 14 0 5 9 4 19 -3 16 -10 23 -9 39 5
10 9 22 14 27 10 4 -5 6 -1 3 7 -3 9 -14 14 -30 12 -34 -4 -44 14 -18 30 25
16 26 28 3 28 -20 1 -73 44 -73 60 0 13 -13 13 -26 0 -7 -7 -19 -7 -35 -1 -15
6 -18 10 -8 10 9 1 22 8 29 16 17 20 64 20 57 0 -5 -10 4 -16 31 -20 20 -3 44
-8 53 -9 22 -5 49 13 32 21 -27 10 -11 23 30 24 75 1 90 17 17 19 -64 2 -64 2
-22 11 53 10 63 16 56 33 -6 16 38 34 81 32 25 -1 31 3 30 19 -1 11 -5 28 -10
39 -9 21 8 36 43 36 26 0 29 -12 6 -31 -14 -11 -14 -13 1 -22 11 -6 24 -3 41
7 13 9 24 12 24 7 0 -6 6 -9 13 -7 46 15 67 16 67 3 0 -22 101 -28 184 -12 39
7 112 21 161 30 98 19 260 24 370 12 49 -6 65 -5 55 2 -12 9 -12 11 6 11 28 0
36 10 23 27 -9 10 -8 13 3 13 8 0 25 11 38 25 13 14 29 25 37 25 7 0 13 10 13
23 0 18 -2 19 -10 7 -8 -13 -10 -13 -10 1 0 10 13 20 32 25 31 9 33 12 35 63
2 46 0 54 -17 58 -11 3 -20 9 -20 14 0 16 32 23 40 9 10 -17 60 -25 60 -10 0
6 -14 16 -31 22 -20 7 -28 15 -25 25 4 9 -1 17 -14 20 -11 3 -20 12 -20 19 0
8 -7 14 -15 14 -22 0 -18 -38 5 -45 26 -8 26 -25 0 -25 -11 0 -20 5 -20 10 0
6 -8 10 -18 10 -10 0 -26 10 -36 21 -13 16 -21 18 -29 10 -14 -14 -50 -14 -65
1 -9 9 -17 9 -36 -2 -26 -13 -29 -11 -147 102 -10 10 -25 15 -34 12 -23 -9
-19 31 6 54 16 15 30 18 67 14 26 -2 54 -8 63 -13 31 -16 148 -23 164 -9 9 8
29 10 50 7 24 -4 40 -1 50 9 8 9 19 13 24 10 11 -7 61 14 61 26 0 4 5 8 11 8
7 0 32 16 56 36 24 20 47 33 51 29 4 -4 1 -10 -5 -12 -7 -3 -13 -13 -13 -23 0
-10 -4 -21 -8 -24 -9 -5 -15 -64 -7 -76 9 -14 37 1 31 16 -3 8 7 21 24 30 15
10 33 28 39 41 6 13 14 23 18 22 22 -4 22 4 2 32 -13 18 -22 47 -23 71 0 31
-8 48 -36 77 -45 48 -62 54 -102 33 -18 -9 -61 -18 -95 -20 -53 -4 -69 0 -127
28 -36 18 -86 35 -111 37 -29 4 -45 10 -45 19 0 8 5 14 12 14 6 0 32 10 56 21
l44 22 70 -34 c90 -43 165 -47 216 -9 48 35 105 31 149 -11 18 -18 33 -41 33
-50 0 -10 5 -21 10 -24 8 -5 8 -11 0 -20 -6 -7 -7 -20 -4 -29 4 -11 -2 -26
-16 -41 -26 -28 -23 -42 4 -22 24 17 49 88 36 101 -6 6 -10 18 -10 28 0 11 -7
32 -15 48 -9 18 -12 40 -9 60 6 26 10 29 28 24 19 -6 18 -4 -7 27 -34 43 -59
97 -53 118 3 9 1 34 -3 56 -5 30 -11 39 -24 37 -9 -2 -17 2 -17 8 0 5 5 10 10
10 19 0 10 35 -12 45 -12 6 -26 18 -32 27 -14 24 10 40 99 68 145 46 151 48
218 81 48 24 72 44 134 112 27 29 32 41 27 65 -5 24 -2 32 15 41 27 15 27 47
0 54 -15 4 -19 2 -15 -9 3 -9 2 -12 -5 -9 -5 4 -9 14 -8 23 3 30 -1 37 -12 22
-9 -12 -10 -10 -6 9 5 21 3 23 -24 17 -27 -5 -30 -3 -35 24 -8 35 -37 48 -60
26 -8 -9 -21 -16 -28 -16 -18 0 -66 24 -66 33 0 4 -9 7 -20 7 -17 0 -19 5 -13
32 6 29 5 31 -18 24 -42 -13 -129 -11 -129 3 0 13 73 22 84 11 15 -15 26 -12
26 5 0 8 -6 15 -14 15 -8 0 -27 11 -43 24 -15 12 -41 28 -58 33 -22 7 -29 15
-27 29 2 10 8 21 13 22 14 6 10 24 -8 38 -17 13 -16 16 12 39 28 23 29 25 11
38 -11 8 -20 25 -21 38 -1 21 -8 25 -52 29 -28 3 -57 13 -67 23 -17 17 -17 19
4 37 24 21 56 28 45 10 -3 -5 -13 -10 -21 -10 -23 0 -11 -25 14 -28 15 -2 22
2 22 12 0 9 8 16 19 16 11 0 23 5 27 11 3 6 18 8 33 4 26 -6 26 -6 -4 15 -16
11 -37 20 -45 20 -9 0 -5 8 13 21 22 17 25 24 16 35 -6 8 -20 14 -30 14 -23 0
-25 18 -4 26 19 8 20 34 1 34 -8 0 -17 7 -20 15 -4 11 -17 15 -40 13 -55 -3
-53 9 3 29 54 19 66 45 23 51 -27 4 -29 28 -2 37 28 9 25 23 -7 31 -25 7 -25
8 -7 21 16 12 17 15 4 23 -8 5 -25 7 -38 3 -22 -5 -52 11 -52 28 0 5 9 9 20 9
24 0 26 13 5 30 -8 7 -15 17 -15 23 0 16 -62 67 -82 67 -27 0 -23 36 5 44 16
4 19 8 9 14 -7 5 -10 16 -6 25 8 22 -7 22 -32 -1 -11 -10 -33 -22 -49 -26
l-30 -8 28 26 c32 30 34 42 7 51 -24 8 -17 23 17 36 26 10 23 29 -5 29 -9 0
-23 4 -31 9 -12 8 -12 13 3 35 13 21 14 26 2 26 -20 0 -26 36 -9 59 13 19 12
21 -9 21 -17 0 -19 3 -9 9 11 7 11 9 0 14 -10 4 -9 6 3 6 23 1 32 19 18 36
-10 12 -10 15 1 15 7 0 0 13 -16 30 l-29 30 27 0 c28 0 45 15 25 24 -10 3 -8
9 5 19 15 13 16 15 2 21 -8 3 -23 2 -32 -1 -32 -13 20 35 55 50 l32 13 -20 22
c-12 12 -26 22 -32 22 -19 0 12 29 34 32 28 4 34 25 9 33 -20 6 -36 33 -26 44
3 3 10 -1 15 -9 5 -8 12 -11 16 -7 4 3 -4 15 -17 26 -13 11 -20 23 -16 27 4 5
12 2 16 -5 9 -15 31 -7 31 11 0 6 7 16 17 23 15 11 14 14 -6 34 -13 13 -29 20
-38 17 -20 -8 -55 28 -47 48 5 13 -2 16 -35 16 -39 0 -56 13 -28 23 9 3 9 11
1 35 -9 23 -9 33 0 42 8 8 4 18 -17 36 -16 13 -25 29 -22 34 4 6 -9 10 -33 10
-26 0 -45 7 -56 19 -10 11 -30 25 -46 31 -16 7 -32 20 -35 31 -4 11 -12 16
-21 12 -8 -3 -37 4 -64 16 -28 12 -73 23 -100 25 -54 4 -105 30 -94 48 4 7 -4
8 -25 3 -35 -7 -74 2 -66 16 4 5 1 9 -4 9 -6 0 -11 -5 -11 -11 0 -7 -7 -8 -17
-4 -10 4 -29 7 -42 6 -13 0 -30 4 -37 10 -11 9 -20 7 -38 -5 -23 -14 -26 -14
-41 0 -12 12 -28 15 -60 11 -31 -3 -48 0 -56 9 -8 10 -15 11 -24 4 -8 -7 -46
-8 -106 -4 -52 3 -122 7 -156 8 -34 0 -65 4 -68 8 -4 4 -16 3 -27 -3 -11 -6
-27 -7 -36 -3 -36 15 -89 11 -138 -12 -28 -13 -55 -24 -60 -24 -5 0 -20 -9
-34 -20 -14 -11 -34 -20 -45 -19 -25 0 -65 32 -65 53 0 12 -7 14 -30 10 -40
-9 -40 14 0 29 37 14 34 32 -6 32 -18 0 -29 5 -29 14 0 18 72 23 79 4 6 -14
36 -18 36 -5 0 14 -49 52 -68 52 -22 0 -72 22 -72 32 0 4 5 10 10 13 15 9 12
25 -6 25 -8 0 -12 5 -9 10 3 6 19 10 35 10 18 0 34 8 43 21 9 12 23 19 34 17
37 -6 26 17 -13 30 -70 22 -75 24 -71 36 2 6 15 11 29 11 14 0 32 9 42 22 13
17 14 23 3 23 -7 0 -17 -4 -22 -9 -6 -5 -29 -11 -53 -15 l-42 -6 21 21 c28 28
81 49 123 49 19 0 38 5 41 10 4 7 -13 10 -49 9 -31 -1 -56 -6 -56 -11 0 -11
-48 -10 -55 2 -4 6 6 10 22 10 22 0 25 2 13 10 -8 5 -28 10 -45 10 -42 0 -75
10 -75 22 0 6 13 8 30 5 40 -9 90 2 90 19 0 17 -41 19 -58 2 -8 -8 -15 -8 -28
3 -9 8 -46 24 -82 35 -55 18 -62 23 -43 29 14 4 33 2 47 -6 18 -9 30 -10 49
-1 14 6 25 16 25 21 0 14 -41 21 -82 14 -25 -4 -38 -2 -38 6 0 6 11 11 24 11
13 0 26 6 29 13 3 7 29 19 58 27 l54 15 -40 5 c-22 3 -50 3 -62 -2 -14 -4 -26
-2 -33 8 -7 7 -25 14 -41 14 -16 0 -29 4 -29 9 0 11 29 23 40 16 4 -3 10 4 13
14 6 24 154 95 250 121 33 9 44 16 35 21 -13 8 -35 5 -73 -10 -11 -5 -40 -15
-65 -22 -25 -7 -50 -19 -57 -25 -19 -18 -82 -27 -99 -13 -21 17 -18 49 5 49
27 0 51 27 51 56 0 15 6 24 15 24 8 0 15 -4 15 -10 0 -5 12 -10 28 -9 l27 1
-27 11 c-16 6 -28 14 -28 19 0 4 -7 8 -15 8 -8 0 -15 5 -15 10 0 6 -7 10 -15
10 -8 0 -15 -4 -15 -10 0 -5 7 -10 16 -10 9 0 14 -5 12 -12 -7 -19 -24 -20
-41 -3 -9 8 -20 15 -26 15 -6 0 -11 4 -11 8 0 9 21 20 78 44 17 7 32 17 32 22
0 10 -44 0 -82 -19 -23 -11 -28 -11 -28 0 0 7 9 15 20 18 11 3 20 10 20 16 0
19 -49 12 -70 -9 -12 -12 -33 -20 -52 -20 -18 0 -28 4 -22 8 26 24 107 72 120
72 20 0 18 16 -3 25 -16 6 -15 8 7 19 14 8 50 19 80 27 30 7 61 17 68 22 8 7
17 6 24 -1 15 -15 48 -16 48 -2 0 6 10 10 23 10 13 0 28 5 35 12 9 9 12 9 12
0 0 -7 -13 -21 -30 -30 -35 -20 -38 -32 -10 -32 11 0 20 7 20 15 0 8 8 15 18
15 11 0 27 9 37 20 10 11 24 20 30 20 13 0 75 53 75 64 0 3 -9 6 -20 6 -11 0
-20 -7 -20 -15 0 -18 -37 -20 -43 -2 -3 9 -7 9 -20 -1 -9 -8 -22 -12 -29 -10
-7 3 2 13 20 23 18 11 32 23 32 27 0 4 15 8 34 8 33 0 75 29 45 31 -35 3 -65
-4 -72 -17 -4 -8 -15 -14 -23 -14 -8 0 -12 -4 -9 -10 4 -6 -5 -10 -19 -10 -30
0 -33 8 -9 26 10 7 14 16 10 21 -5 4 -14 0 -21 -10 -7 -9 -21 -17 -30 -17 -9
0 -16 -4 -16 -10 0 -5 7 -10 16 -10 9 0 14 -6 11 -12 -2 -7 -15 -12 -29 -10
-15 2 -29 -2 -33 -7 -4 -7 4 -11 18 -11 14 0 27 -7 31 -15 5 -15 3 -16 -59
-21 -16 -1 -47 -5 -67 -9 -33 -7 -38 -5 -38 11 -1 18 -1 18 -11 1 -11 -18 -78
-51 -87 -42 -7 7 50 55 65 55 7 0 16 8 22 17 9 17 10 17 28 0 21 -18 43 -23
43 -8 0 5 9 13 20 16 29 9 25 42 -8 75 -25 25 -27 29 -11 33 9 3 30 -4 46 -14
33 -22 49 -24 56 -6 4 10 -2 13 -19 9 -33 -6 -31 16 3 24 17 5 28 3 31 -4 2
-7 8 -9 14 -6 5 3 -4 15 -21 25 -33 20 -91 26 -91 9 0 -5 -11 -10 -24 -10 -13
0 -29 -7 -36 -15 -7 -8 -16 -12 -21 -9 -5 3 -14 -6 -21 -20 -6 -14 -14 -26
-17 -27 -3 0 -21 -2 -39 -5 -30 -4 -32 -3 -18 12 9 8 16 22 16 31 0 12 3 13
14 4 11 -9 19 -9 35 1 12 7 21 16 21 20 0 5 9 8 21 8 11 0 18 4 15 9 -5 8 57
31 84 31 8 0 22 7 32 17 11 9 18 11 18 5 0 -7 11 -12 25 -12 27 0 33 -18 13
-39 -11 -10 -7 -11 17 -5 17 3 37 15 45 24 8 10 26 20 40 22 14 2 25 10 25 18
0 8 9 20 19 26 26 16 30 57 4 48 -10 -3 -27 -2 -39 1 -19 7 -20 7 -2 21 20 15
109 19 118 5 3 -6 -3 -15 -12 -21 -15 -8 -12 -10 17 -8 36 3 36 2 27 63 -1 6
7 10 18 11 11 0 31 4 44 8 14 5 32 3 46 -4 26 -14 75 -6 75 12 0 15 40 50 81
69 126 61 230 92 237 71 5 -17 32 -15 32 2 0 17 42 29 51 14 4 -7 10 -5 15 5
7 13 17 14 54 6 25 -6 50 -9 55 -9 6 1 33 2 60 3 45 2 50 0 47 -18 -2 -14 0
-16 6 -7 13 20 79 27 98 11 10 -8 35 -14 57 -15 31 0 45 -6 62 -28 14 -18 25
-24 29 -17 11 18 22 13 34 -15 7 -14 16 -23 21 -20 4 3 22 1 39 -3 20 -6 34
-5 42 2 10 9 11 6 6 -15 -6 -24 -3 -27 26 -30 25 -2 34 -9 38 -28 4 -15 13
-25 23 -25 10 0 21 -6 25 -12 6 -10 17 -8 48 8 21 12 55 23 74 25 49 5 110 19
141 32 15 6 29 8 32 6 7 -8 87 18 87 28 0 4 -14 8 -32 8 -23 0 -29 3 -21 11
14 14 69 7 65 -9 -1 -7 6 -16 15 -19 45 -17 169 -141 223 -223 25 -37 60 -74
66 -68 3 4 0 15 -7 26 -10 16 -10 24 -1 35 7 8 10 21 6 30 -8 22 62 90 86 82
24 -8 100 39 100 61 0 9 14 33 30 54 17 21 30 46 30 55 0 23 66 85 90 85 10 0
21 7 24 16 4 11 2 15 -8 11 -8 -3 -30 -9 -49 -12 -30 -6 -35 -4 -42 17 -4 12
-7 28 -6 34 1 7 -7 14 -18 17 -37 9 -37 79 -1 187 17 52 35 99 40 105 5 6 4
29 -2 54 -8 32 -8 52 0 75 13 36 15 69 5 79 -3 4 -8 33 -10 64 -6 102 -14 143
-27 143 -9 0 -15 25 -20 83 -6 74 -10 107 -32 217 -4 19 -15 49 -25 68 -11 18
-19 39 -19 47 0 8 -5 15 -11 15 -8 0 -9 -12 -4 -37 10 -46 10 -58 0 -100 -5
-22 -4 -33 4 -33 6 0 11 5 11 10 0 6 5 10 10 10 14 0 12 -36 -3 -48 -7 -6 -12
-30 -11 -56 1 -25 -2 -46 -7 -46 -5 0 -9 -7 -9 -15 0 -8 -4 -15 -10 -15 -6 0
-11 47 -12 118 -2 113 -3 156 -7 177 -1 6 -8 -2 -17 -17 -13 -24 -13 -31 0
-50 14 -23 14 -27 -11 -157 -12 -66 -43 77 -43 201 l0 75 -97 12 c-216 25
-546 36 -768 24z m420 -121 c-5 -14 -7 -15 -16 -2 -9 15 -3 85 10 105 8 13 14
-83 6 -103z m365 -123 c0 -5 -4 -9 -10 -9 -5 0 -10 7 -10 16 0 8 5 12 10 9 6
-3 10 -10 10 -16z m32 -44 c-8 -29 -9 -29 -15 -6 -7 27 2 56 14 44 5 -5 5 -22
1 -38z m203 -5 c-5 -8 -11 -8 -17 -2 -6 6 -7 16 -3 22 5 8 11 8 17 2 6 -6 7
-16 3 -22z m3 -65 c0 -25 -4 -45 -9 -45 -5 0 -9 20 -9 45 0 25 4 45 9 45 5 0
9 -20 9 -45z m-78 -57 c0 -16 -3 -19 -11 -11 -6 6 -8 16 -5 22 11 17 16 13 16
-11z m75 -83 c0 -53 -4 -80 -12 -82 -8 -3 -12 9 -12 39 1 24 0 48 -1 53 -7 30
1 76 13 72 8 -2 12 -28 12 -82z m-15 -155 c0 -5 -5 -10 -11 -10 -5 0 -7 5 -4
10 3 6 8 10 11 10 2 0 4 -4 4 -10z m-1600 -594 c0 -11 -19 -15 -25 -6 -3 5 1
10 9 10 9 0 16 -2 16 -4z m-430 -95 c0 -5 -8 -11 -17 -15 -10 -3 -24 -9 -30
-12 -7 -3 -13 -1 -13 5 0 6 7 11 15 11 8 0 15 5 15 10 0 6 7 10 15 10 8 0 15
-4 15 -9z m-94 -72 c19 -21 19 -21 -6 -18 -14 2 -26 12 -28 22 -5 23 11 22 34
-4z m94 -9 c0 -5 -7 -10 -16 -10 -8 0 -12 5 -9 10 3 6 10 10 16 10 5 0 9 -4 9
-10z m-205 -20 c-3 -5 -11 -10 -16 -10 -6 0 -7 5 -4 10 3 6 11 10 16 10 6 0 7
-4 4 -10z m-60 -10 c-3 -5 -10 -10 -16 -10 -5 0 -9 5 -9 10 0 6 7 10 16 10 8
0 12 -4 9 -10z m-55 -30 c0 -5 -9 -10 -20 -10 -11 0 -20 5 -20 10 0 6 9 10 20
10 11 0 20 -4 20 -10z m-240 -40 c0 -5 -4 -10 -10 -10 -5 0 -10 5 -10 10 0 6
5 10 10 10 6 0 10 -4 10 -10z m240 -22 c0 -13 -53 -6 -57 8 -2 7 8 9 27 6 16
-2 30 -9 30 -14z m-103 -24 c1 -16 -1 -21 -3 -11 -3 9 -12 17 -20 17 -15 0
-19 12 -7 24 13 13 28 -1 30 -30z m113 -14 c0 -5 -4 -10 -10 -10 -5 0 -10 5
-10 10 0 6 5 10 10 10 6 0 10 -4 10 -10z m-301 -36 c3 -16 1 -17 -13 -5 -19
16 -21 34 -3 29 6 -3 14 -13 16 -24z m91 16 c0 -5 -7 -10 -15 -10 -8 0 -15 5
-15 10 0 6 7 10 15 10 8 0 15 -4 15 -10z m160 6 c0 -11 -19 -15 -25 -6 -3 5 1
10 9 10 9 0 16 -2 16 -4z m-333 -68 c-3 -8 -6 -5 -6 6 -1 11 2 17 5 13 3 -3 4
-12 1 -19z m-20 -30 c-3 -8 -6 -5 -6 6 -1 11 2 17 5 13 3 -3 4 -12 1 -19z
m-173 -17 c3 -5 -7 -14 -24 -19 -33 -12 -50 1 -23 17 22 13 40 14 47 2z m137
-21 c13 -10 19 -19 12 -20 -6 0 -19 8 -29 18 -10 9 -19 16 -21 14 -2 -2 -9 -1
-16 1 -6 3 -2 6 9 6 12 1 32 -8 45 -19z m183 7 c17 -13 18 -14 2 -20 -22 -9
-11 -27 15 -27 10 0 19 -4 19 -9 0 -12 -49 -20 -56 -9 -3 5 -18 14 -32 20 -27
10 -27 10 -5 19 15 5 21 14 17 24 -8 19 15 20 40 2z m-489 -17 c-3 -5 -17 -10
-31 -10 -14 0 -22 4 -19 10 3 6 17 10 31 10 14 0 22 -4 19 -10z m155 -40 c11
-7 7 -10 -17 -10 -18 0 -33 5 -33 10 0 13 30 13 50 0z m250 -10 c0 -5 -2 -10
-4 -10 -3 0 -8 5 -11 10 -3 6 -1 10 4 10 6 0 11 -4 11 -10z m-20 -18 c0 -4
-21 -26 -47 -49 -49 -45 -77 -54 -87 -28 -4 11 -21 15 -66 15 -33 0 -60 4 -60
10 0 13 153 9 163 -4 5 -7 12 -4 22 8 12 16 12 22 2 28 -7 5 0 6 17 2 24 -6
28 -4 23 9 -3 8 -3 17 0 20 6 7 33 -3 33 -11z m-170 -12 c0 -5 -2 -10 -4 -10
-3 0 -8 5 -11 10 -3 6 -1 10 4 10 6 0 11 -4 11 -10z m490 1 c0 -5 -7 -11 -15
-15 -15 -5 -20 5 -8 17 9 10 23 9 23 -2z m-625 -81 c3 -5 -1 -10 -9 -10 -8 0
-18 5 -21 10 -3 6 1 10 9 10 8 0 18 -4 21 -10z m88 -7 c4 -3 -2 -13 -13 -20
-17 -12 -24 -12 -36 -2 -12 10 -12 14 -2 20 16 10 42 11 51 2z m87 -13 c-19
-13 -30 -13 -30 0 0 6 10 10 23 10 18 0 19 -2 7 -10z m16 -55 c-38 -34 -76
-46 -76 -25 0 6 6 10 13 10 7 0 28 11 47 25 50 37 61 30 16 -10z m-91 15 c-3
-5 -12 -10 -18 -10 -7 0 -6 4 3 10 19 12 23 12 15 0z m-30 -40 c-3 -5 -10 -10
-16 -10 -5 0 -9 5 -9 10 0 6 7 10 16 10 8 0 12 -4 9 -10z m71 -105 c-11 -8
-31 -15 -44 -15 -21 0 -22 2 -12 15 7 8 27 15 44 15 29 -1 30 -1 12 -15z m90
-10 c4 -8 16 -15 28 -15 20 -1 56 -21 56 -33 0 -13 -70 -38 -89 -32 -12 3 -21
2 -21 -3 0 -14 -37 -3 -51 14 -9 11 -8 14 8 14 10 0 24 -5 31 -12 9 -9 12 -7
12 10 0 25 18 30 26 7 8 -19 24 -20 24 -1 0 8 -13 20 -30 28 -31 13 -35 19
-23 31 11 11 23 8 29 -8z m-186 -5 c0 -5 -5 -10 -11 -10 -5 0 -7 5 -4 10 3 6
8 10 11 10 2 0 4 -4 4 -10z m180 -129 c0 -6 -4 -13 -10 -16 -5 -3 -10 1 -10 9
0 9 5 16 10 16 6 0 10 -4 10 -9z m60 -170 c0 -9 -24 -21 -41 -21 -5 0 -9 7 -9
15 0 9 9 15 25 15 14 0 25 -4 25 -9z m20 -221 c0 -5 -5 -10 -11 -10 -5 0 -7 5
-4 10 3 6 8 10 11 10 2 0 4 -4 4 -10z m60 -35 c0 -17 16 -20 25 -5 7 12 45 14
45 2 0 -4 -13 -13 -29 -20 -27 -12 -32 -11 -50 7 -25 25 -26 31 -6 31 8 0 15
-7 15 -15z m50 -61 c0 -3 -6 -12 -14 -20 -8 -7 -17 -19 -19 -26 -4 -10 -8 -10
-15 1 -6 8 -17 11 -26 8 -9 -4 -16 -2 -16 3 0 6 8 10 18 10 9 0 26 7 36 15 20
15 36 19 36 9z m64 -49 c27 -20 15 -28 -17 -12 -15 8 -24 17 -20 20 9 10 15 8
37 -8z m-194 -5 c0 -5 -7 -10 -15 -10 -8 0 -15 5 -15 10 0 6 7 10 15 10 8 0
15 -4 15 -10z m65 -41 c-4 -5 -13 -9 -22 -9 -13 0 -13 3 -3 15 13 15 35 11 25
-6z m68 -36 c-7 -2 -19 -2 -25 0 -7 3 -2 5 12 5 14 0 19 -2 13 -5z m-28 -73
c-3 -5 -13 -10 -21 -10 -8 0 -12 5 -9 10 3 6 13 10 21 10 8 0 12 -4 9 -10z
m-89 -42 c-20 -11 -44 1 -25 12 6 5 19 6 27 3 12 -5 12 -7 -2 -15z m86 -30
c-5 -5 -17 -6 -26 -2 -13 5 -14 9 -5 14 16 11 43 0 31 -12z m77 -75 c19 -13
28 -14 42 -4 16 9 19 8 19 -4 0 -9 7 -18 15 -21 16 -7 21 -34 6 -34 -5 0 -16
-3 -24 -6 -10 -3 -17 1 -19 13 -3 16 -5 16 -26 -5 -26 -26 -38 -28 -46 -6 -5
12 -14 15 -38 10 -31 -6 -31 -6 -13 14 10 11 24 20 32 20 7 0 13 9 13 20 0 24
8 25 39 3z m-99 -13 c0 -5 -10 -10 -22 -10 -19 0 -20 2 -8 10 19 13 30 13 30
0z m1203 -17 c-7 -2 -21 -2 -30 0 -10 3 -4 5 12 5 17 0 24 -2 18 -5z m-1233
-44 c0 -5 -7 -9 -15 -9 -15 0 -20 12 -9 23 8 8 24 -1 24 -14z m90 -30 c0 -5
-6 -9 -14 -9 -25 0 -46 12 -46 26 0 10 6 11 30 3 17 -6 30 -15 30 -20z m-1010
11 c0 -5 -5 -10 -11 -10 -5 0 -7 5 -4 10 3 6 8 10 11 10 2 0 4 -4 4 -10z m830
-9 c0 -5 -7 -12 -16 -15 -22 -9 -24 -8 -24 9 0 8 9 15 20 15 11 0 20 -4 20 -9z
m-590 -11 c0 -5 -4 -10 -10 -10 -5 0 -10 5 -10 10 0 6 5 10 10 10 6 0 10 -4
10 -10z m506 -35 c-22 -16 -77 -21 -60 -6 8 8 36 16 69 19 6 1 1 -5 -9 -13z
m-586 -5 c0 -5 -9 -10 -21 -10 -11 0 -17 5 -14 10 3 6 13 10 21 10 8 0 14 -4
14 -10z m110 6 c0 -3 -4 -8 -10 -11 -5 -3 -10 -1 -10 4 0 6 5 11 10 11 6 0 10
-2 10 -4z m320 -6 c0 -5 -4 -10 -10 -10 -5 0 -10 5 -10 10 0 6 5 10 10 10 6 0
10 -4 10 -10z m250 -20 c0 -5 -11 -10 -25 -10 -14 0 -25 5 -25 10 0 6 11 10
25 10 14 0 25 -4 25 -10z m-560 -40 c0 -5 -7 -10 -15 -10 -8 0 -15 5 -15 10 0
6 7 10 15 10 8 0 15 -4 15 -10z m2430 -10 c0 -5 -5 -10 -11 -10 -5 0 -7 5 -4
10 3 6 8 10 11 10 2 0 4 -4 4 -10z m-2500 -4 c0 -3 -4 -8 -10 -11 -5 -3 -10
-1 -10 4 0 6 5 11 10 11 6 0 10 -2 10 -4z m-40 -26 c0 -5 -4 -10 -10 -10 -5 0
-10 5 -10 10 0 6 5 10 10 10 6 0 10 -4 10 -10z m2559 -23 c6 -8 8 -17 4 -20
-11 -12 -21 -7 -26 13 -6 23 5 26 22 7z m-2409 -37 c0 -5 -4 -10 -9 -10 -6 0
-13 5 -16 10 -3 6 1 10 9 10 9 0 16 -4 16 -10z m-330 -20 c0 -5 -9 -10 -21
-10 -11 0 -17 5 -14 10 3 6 13 10 21 10 8 0 14 -4 14 -10z m285 -10 c-3 -5
-13 -10 -21 -10 -8 0 -14 5 -14 10 0 6 9 10 21 10 11 0 17 -4 14 -10z m183
-18 c2 -7 -5 -12 -17 -12 -14 0 -19 5 -14 15 6 17 25 15 31 -3z m-608 -32 c0
-5 -4 -10 -10 -10 -5 0 -10 5 -10 10 0 6 5 10 10 10 6 0 10 -4 10 -10z m69
-71 c-15 -9 -32 -2 -24 11 3 5 13 6 21 3 12 -4 13 -8 3 -14z m2913 -4 c0 -5
-5 -11 -11 -13 -6 -2 -11 4 -11 13 0 9 5 15 11 13 6 -2 11 -8 11 -13z m-2785
-31 c-3 -3 -12 -4 -19 -1 -8 3 -5 6 6 6 11 1 17 -2 13 -5z m-90 -21 c-16 -16
-18 -16 -34 0 -16 16 -15 17 17 17 32 0 33 -1 17 -17z m195 -15 c-7 -7 -12 -8
-12 -2 0 14 12 26 19 19 2 -3 -1 -11 -7 -17z m-277 -18 c-17 -33 -23 -35 -60
-18 -34 15 -32 23 13 35 62 17 64 17 47 -17z m99 -30 c4 -4 5 -13 2 -19 -10
-16 -36 -13 -42 4 -4 8 -13 15 -21 15 -8 0 -11 5 -7 11 7 11 52 4 68 -11z
m-329 0 c3 -5 1 -10 -4 -10 -6 0 -11 5 -11 10 0 6 2 10 4 10 3 0 8 -4 11 -10z
m398 -24 c-23 -31 -113 -51 -113 -26 0 6 12 10 28 10 15 0 38 9 52 20 36 28
55 26 33 -4z m113 9 c-8 -8 -19 -15 -25 -15 -6 0 -11 7 -11 15 0 9 10 15 26
15 23 0 24 -2 10 -15z m1624 2 c24 6 59 -25 41 -37 -11 -6 -104 -15 -264 -25
-26 -2 -69 0 -95 4 l-47 7 33 18 c25 13 37 14 47 6 9 -8 14 -8 17 0 2 6 21 12
43 15 95 8 126 13 131 17 3 3 21 2 40 -2 19 -4 43 -6 54 -3z m-1980 -12 c0 -8
-7 -15 -15 -15 -16 0 -20 12 -8 23 11 12 23 8 23 -8z m-47 -18 c4 3 7 -3 7
-15 0 -28 -7 -28 -35 2 -25 28 -21 45 5 21 9 -8 20 -12 23 -8z m121 7 c26 -10
18 -24 -14 -24 -16 0 -30 -5 -30 -12 0 -6 -2 -9 -5 -7 -2 3 -2 15 2 27 5 22
19 27 47 16z m-264 -44 c0 -5 -5 -10 -11 -10 -5 0 -7 5 -4 10 3 6 8 10 11 10
2 0 4 -4 4 -10z m40 0 c0 -5 -4 -10 -10 -10 -5 0 -10 5 -10 10 0 6 5 10 10 10
6 0 10 -4 10 -10z m398 -2 c-3 -7 -13 -15 -24 -17 -16 -3 -17 -1 -5 13 16 19
34 21 29 4z m-328 -12 c0 -11 -19 -15 -25 -6 -3 5 1 10 9 10 9 0 16 -2 16 -4z
m90 -6 c0 -5 -4 -10 -10 -10 -5 0 -10 5 -10 10 0 6 5 10 10 10 6 0 10 -4 10
-10z m154 -6 c22 -8 2 -46 -36 -68 -35 -22 -46 -16 -18 9 11 10 20 26 20 35 0
26 10 33 34 24z m246 -3 c0 -6 -4 -13 -10 -16 -5 -3 -10 1 -10 9 0 9 5 16 10
16 6 0 10 -4 10 -9z m-90 -21 c0 -14 -7 -20 -24 -20 -23 0 -41 22 -29 34 4 3
17 6 30 6 16 0 23 -6 23 -20z m220 4 c0 -11 -45 -42 -53 -37 -10 6 23 42 41
42 6 1 12 -2 12 -5z m-694 -51 c-11 -11 -19 6 -11 24 8 17 8 17 12 0 3 -10 2
-21 -1 -24z m74 27 c0 -5 -5 -10 -11 -10 -5 0 -7 5 -4 10 3 6 8 10 11 10 2 0
4 -4 4 -10z m480 1 c0 -5 12 -11 27 -13 36 -4 41 -26 7 -34 -22 -6 -31 -3 -42
14 -8 12 -22 22 -31 22 -14 0 -14 2 -1 10 19 12 40 13 40 1z m-596 -7 c9 -3
13 -10 10 -15 -8 -14 -21 -11 -28 6 -6 17 -4 18 18 9z m254 -12 c2 -7 -3 -12
-12 -12 -9 0 -16 7 -16 16 0 17 22 14 28 -4z m189 12 c20 -5 20 -8 8 -21 -8
-8 -29 -18 -46 -23 -30 -9 -31 -8 -15 9 9 9 16 23 16 29 0 13 5 14 37 6z m160
-60 c17 -8 36 -14 42 -14 6 0 11 -6 11 -12 1 -7 9 -3 20 10 11 13 25 20 31 17
8 -6 7 -10 -2 -16 -9 -6 -1 -9 24 -9 20 0 37 -5 37 -11 0 -7 -12 -10 -30 -7
-16 3 -30 1 -30 -4 0 -14 -94 3 -105 19 -8 10 -25 12 -73 7 -60 -7 -62 -8 -59
-33 3 -23 8 -26 51 -29 25 -2 44 -7 41 -12 -3 -5 7 -12 22 -16 15 -4 39 -12
53 -19 64 -32 80 -38 87 -31 14 13 -14 41 -43 43 -47 2 -50 3 -35 12 9 6 -2
11 -33 15 -47 7 -108 45 -74 46 33 0 118 -22 118 -31 0 -5 13 -9 29 -9 17 0
33 -4 36 -10 3 -5 22 -10 42 -10 35 0 35 -1 19 -19 -16 -18 -16 -19 13 -32 17
-8 31 -17 31 -20 0 -4 9 -9 20 -12 11 -3 20 -1 20 4 0 10 50 12 74 3 9 -3 13
-10 10 -15 -3 -5 2 -9 11 -9 9 0 14 -4 10 -9 -3 -5 -22 -8 -43 -6 -20 3 -28 2
-17 -1 11 -3 30 -10 43 -16 18 -10 29 -8 51 5 31 18 101 23 101 8 0 -5 -18 -7
-40 -4 -36 5 -40 3 -40 -16 0 -12 6 -21 15 -21 8 0 15 -4 15 -10 0 -5 -12 -10
-26 -10 -14 0 -23 -4 -20 -9 3 -4 39 -8 81 -9 59 0 75 3 75 14 0 16 9 18 30 4
10 -6 11 -10 3 -10 -7 0 -13 -7 -13 -15 0 -8 -9 -15 -20 -15 -15 0 -20 -7 -20
-25 l0 -25 20 20 c11 11 29 20 39 20 22 0 81 -31 81 -42 0 -5 29 -8 65 -8 59
0 84 11 53 23 -8 4 -7 6 3 6 9 1 19 -6 23 -14 3 -8 14 -15 25 -15 11 0 23 -4
26 -10 3 -6 -4 -10 -16 -10 -28 0 -89 -21 -89 -31 0 -25 82 -13 101 15 8 11
119 14 119 4 0 -5 -9 -8 -20 -8 -11 0 -20 -4 -20 -9 0 -5 -17 -15 -37 -21 -65
-20 -110 -44 -91 -48 9 -2 26 2 37 7 11 6 31 11 45 11 14 0 28 5 32 11 4 7 24
9 58 5 28 -4 57 -7 64 -8 8 -1 11 -9 8 -20 -4 -17 0 -19 32 -14 83 12 136 16
118 8 -30 -13 -3 -22 35 -12 19 5 95 14 169 20 125 10 167 18 228 41 33 13 52
11 52 -5 0 -8 5 -18 11 -22 8 -4 9 3 4 25 -5 24 -3 31 8 31 9 0 17 -5 19 -10
2 -6 13 -12 26 -13 30 -2 28 -15 -3 -23 -14 -3 -25 -11 -25 -16 0 -6 -9 -19
-20 -28 -14 -12 -17 -21 -10 -25 6 -4 24 8 40 25 26 28 32 30 46 19 15 -12 14
-15 -5 -27 -28 -19 -27 -32 3 -32 33 0 44 -34 20 -61 -17 -19 -16 -19 47 -13
l64 7 -24 -27 c-21 -22 -22 -26 -7 -26 9 0 31 7 47 16 17 8 42 14 57 12 l27
-4 -27 -11 c-14 -7 -29 -17 -33 -22 -3 -6 -14 -11 -24 -11 -9 0 -33 -12 -52
-26 -19 -15 -25 -23 -14 -19 11 4 30 10 43 12 12 3 25 9 28 14 3 5 19 9 35 9
39 0 102 27 94 40 -3 5 1 10 10 10 9 0 13 -5 10 -10 -3 -6 1 -13 9 -16 29 -11
17 -27 -15 -20 -24 5 -32 2 -36 -12 -3 -14 -12 -17 -42 -14 -32 3 -39 0 -49
-22 -7 -17 -20 -26 -34 -26 -18 0 -20 -2 -8 -10 8 -5 25 -7 36 -4 12 3 25 1
29 -6 11 -18 -13 -38 -40 -32 -15 2 -25 0 -25 -7 0 -6 -8 -11 -17 -11 -42 0 2
-12 61 -17 62 -4 66 -3 66 16 0 17 6 21 30 21 17 0 30 -2 30 -5 0 -17 -46 -46
-82 -51 -64 -9 -78 -15 -48 -23 25 -7 25 -7 -9 -24 -19 -9 -42 -17 -53 -17
-10 0 -18 -6 -18 -14 0 -8 -6 -17 -12 -19 -8 -3 -6 -6 5 -6 9 -1 17 2 17 7 0
4 34 8 76 9 65 2 74 0 64 -12 -7 -8 -21 -15 -30 -15 -10 0 -20 -6 -23 -12 -3
-10 -7 -10 -20 1 -10 7 -17 9 -17 3 0 -5 -9 -8 -20 -5 -11 3 -20 0 -20 -6 0
-6 7 -11 16 -11 9 0 14 -6 11 -12 -4 -14 -16 -14 -57 -2 -25 7 -25 7 -6 -14
14 -16 25 -20 45 -15 14 3 28 10 29 15 2 4 8 6 13 2 5 -3 19 2 31 10 25 18
103 22 93 6 -3 -5 -17 -10 -30 -10 -13 0 -27 -4 -30 -10 -3 -5 -17 -10 -31
-10 -13 0 -24 -4 -24 -8 0 -4 -13 -13 -30 -19 -17 -6 -30 -16 -30 -22 0 -8 6
-9 18 -2 12 6 21 4 31 -6 11 -12 10 -15 -8 -20 -12 -3 -21 -12 -21 -20 0 -10
6 -13 15 -9 10 3 18 -1 22 -12 4 -9 14 -22 22 -29 14 -11 14 -12 -1 -13 -9 0
-18 5 -20 11 -3 8 -15 6 -41 -4 -41 -18 -48 -36 -17 -44 20 -5 20 -7 4 -24 -9
-11 -24 -19 -32 -19 -9 0 -13 -7 -9 -19 4 -17 -1 -20 -32 -23 -40 -3 -45 -20
-9 -29 l23 -6 -27 -13 c-22 -10 -30 -10 -42 -1 -22 18 -39 5 -26 -20 7 -12 21
-19 41 -19 35 0 36 -23 2 -28 -12 -2 -29 -12 -39 -23 -18 -20 -18 -21 6 -39
14 -10 22 -21 19 -25 -8 -8 -39 5 -39 16 0 5 -9 9 -20 9 -14 0 -20 -7 -20 -21
0 -18 4 -20 31 -14 24 5 30 4 27 -6 -3 -8 -20 -15 -39 -17 -19 -2 -42 -12 -52
-23 -20 -22 -18 -23 18 -9 20 7 32 7 46 -4 19 -13 18 -14 -16 -20 -30 -6 -35
-10 -30 -27 5 -15 2 -19 -19 -19 -14 0 -26 -4 -26 -9 0 -5 -12 -11 -27 -13
-14 -2 -28 -8 -30 -14 -3 -8 10 -10 42 -7 l45 6 -7 -34 c-3 -19 -13 -39 -22
-46 -22 -16 -6 -29 22 -16 12 6 30 14 40 17 24 7 21 23 -5 29 -18 5 -19 8 -8
22 7 9 21 13 31 10 14 -5 19 -1 19 14 0 12 7 21 15 21 8 0 15 -7 15 -15 0 -8
4 -15 9 -15 5 0 16 -12 26 -26 12 -19 14 -29 6 -37 -6 -6 -11 -19 -11 -30 0
-14 5 -17 23 -11 12 4 25 11 28 16 4 6 9 6 14 -2 6 -10 -20 -39 -37 -40 -5 0
-8 -4 -8 -10 0 -5 12 -10 26 -10 16 0 24 -5 21 -12 -2 -7 -13 -12 -23 -11 -44
5 -50 -8 -15 -36 l34 -28 -43 -42 c-23 -23 -39 -45 -35 -49 4 -4 10 -1 12 6 3
6 9 12 14 12 15 0 10 -32 -8 -52 -16 -18 -17 -17 -30 13 l-13 32 -25 -23 c-27
-25 -24 -44 6 -35 11 4 19 2 19 -4 0 -6 -4 -11 -10 -11 -5 0 -10 -7 -10 -15 0
-8 -9 -15 -20 -15 -11 0 -20 -4 -20 -10 0 -5 -15 -10 -34 -10 -19 0 -36 -6
-39 -14 -7 -18 -79 -29 -89 -13 -6 9 -11 7 -19 -6 -6 -9 -14 -15 -20 -12 -5 4
-12 -1 -15 -9 -3 -9 -20 -22 -37 -31 -38 -19 -43 -19 -27 0 18 22 6 29 -14 9
-9 -9 -25 -14 -36 -11 -15 4 -20 0 -20 -14 0 -16 -5 -18 -25 -13 -15 4 -25 2
-25 -5 0 -6 -4 -11 -10 -11 -14 0 -13 43 1 57 6 6 9 17 7 24 -3 9 -11 6 -27
-10 -17 -17 -26 -20 -36 -11 -9 8 -14 7 -19 -5 -3 -9 -2 -14 3 -11 13 8 32
-19 26 -37 -7 -17 -70 -14 -120 8 -54 23 -82 26 -89 10 -6 -16 -2 -20 37 -29
25 -6 40 -36 17 -36 -5 0 -10 -9 -10 -20 0 -11 -5 -20 -11 -20 -15 0 -84 -61
-84 -74 0 -6 -8 -12 -17 -14 -21 -4 -24 13 -5 25 8 4 22 22 33 38 10 17 28 38
39 47 20 17 20 17 -2 18 -13 0 -23 -6 -23 -14 0 -7 -8 -16 -17 -20 -10 -3 -26
-11 -35 -18 -23 -17 -34 -3 -20 27 9 19 9 25 0 25 -6 0 -20 7 -30 17 -17 15
-21 15 -58 -3 -22 -10 -40 -22 -40 -26 0 -9 -34 -11 -42 -2 -12 12 33 44 61
44 17 0 31 6 35 16 4 10 14 14 26 11 10 -3 27 1 36 8 16 11 16 13 -4 24 -22
12 -31 51 -12 51 6 0 10 4 10 9 0 13 -43 10 -52 -4 -4 -5 -8 -22 -8 -36 0 -19
-6 -28 -22 -33 -46 -12 -51 -5 -18 23 l35 29 -37 7 c-40 8 -52 25 -18 25 11 0
20 5 20 11 0 8 13 9 40 5 23 -4 40 -2 40 3 0 5 9 13 20 16 36 11 11 25 -34 19
-31 -5 -50 -2 -68 10 -14 9 -43 17 -64 17 -87 -1 -94 0 -94 13 0 9 19 16 52
20 61 8 75 15 57 27 -22 14 -59 10 -65 -6 -7 -16 -44 -21 -44 -5 0 19 45 50
72 50 16 0 31 7 34 15 7 18 50 20 57 3 3 -10 7 -10 17 -1 11 10 10 17 -4 37
-18 28 -33 26 -76 -7 -51 -39 -150 -64 -150 -37 0 6 9 10 20 10 26 0 110 39
110 51 0 20 42 49 70 49 19 0 30 5 30 14 0 21 -20 30 -33 17 -14 -14 -54 -14
-62 -1 -11 17 -36 11 -33 -7 4 -22 -36 -30 -58 -13 -22 19 -17 28 26 41 31 9
43 10 52 1 16 -16 71 -16 66 1 -3 6 -17 13 -32 15 -22 3 -27 8 -23 22 6 23
-11 47 -38 53 -19 4 -19 4 -1 12 13 6 29 3 48 -8 28 -16 58 -14 58 4 0 5 -8 9
-17 9 -10 0 -26 7 -36 14 -18 14 -58 11 -95 -7 -19 -9 -25 -7 -38 11 -8 12
-22 22 -30 22 -8 0 -14 5 -14 11 0 8 15 10 49 5 45 -6 49 -5 44 12 -3 14 -11
17 -34 14 -21 -3 -31 1 -36 14 -4 10 -2 19 5 22 19 6 14 22 -8 22 -29 0 -25
17 6 24 18 5 32 2 44 -9 14 -13 23 -14 37 -7 16 10 15 12 -10 21 -16 6 -33 11
-38 11 -6 0 -8 4 -4 9 3 6 -4 15 -15 21 -26 14 -27 50 -1 50 10 0 24 6 30 14
9 11 7 15 -11 20 -13 3 -36 6 -51 6 -27 0 -27 -1 -12 -17 16 -15 15 -17 -12
-28 -29 -13 -55 -8 -33 5 8 5 9 13 4 21 -4 8 -7 27 -5 42 2 22 -2 30 -18 34
-28 7 -26 17 4 31 34 16 31 32 -6 32 -31 0 -89 27 -89 42 0 4 -6 8 -14 8 -7 0
-16 9 -19 20 -3 13 0 20 8 20 22 0 65 22 65 33 0 5 -13 7 -30 3 -38 -7 -120
14 -120 31 0 15 38 17 60 4 19 -13 34 -2 20 14 -9 11 -4 17 24 29 20 8 36 20
36 25 0 6 -2 11 -4 11 -2 0 -12 3 -22 7 -11 4 -15 3 -10 -5 4 -7 -20 -19 -66
-33 -80 -24 -144 -46 -170 -60 -23 -12 -38 -11 -38 1 0 6 9 10 20 10 11 0 20
7 20 15 0 9 9 15 21 15 11 0 33 6 47 14 15 8 42 20 60 28 17 7 32 16 32 20 0
12 -92 -1 -109 -16 -28 -25 -86 -30 -113 -11 -16 12 -17 16 -5 11 25 -8 113
12 128 30 13 16 10 17 -56 15 -22 -1 -47 3 -55 9 -11 7 -4 10 28 10 45 0 96
25 86 42 -4 5 -36 8 -72 6 -75 -4 -88 9 -37 36 34 19 36 19 75 1 38 -17 42
-17 58 -2 15 16 15 17 -9 17 -14 0 -34 7 -45 15 -10 8 -29 15 -41 15 -13 0
-23 4 -23 9 0 15 -42 25 -50 11 -4 -6 -23 -12 -43 -13 -20 -1 -37 -3 -37 -5 0
-8 30 -32 40 -32 6 0 8 -5 5 -10 -4 -6 -18 -10 -33 -10 -15 1 -40 -2 -57 -6
-27 -7 -29 -6 -16 9 7 10 20 17 28 17 8 0 13 6 10 13 -3 8 -25 11 -75 9 -83
-5 -99 12 -21 21 28 4 57 11 64 17 7 6 25 8 39 4 15 -3 32 -2 39 4 6 5 21 12
32 14 l20 4 -20 10 c-14 8 -46 7 -110 -3 -93 -13 -121 -11 -109 8 4 7 21 9 45
5 31 -5 39 -3 39 9 0 11 11 15 39 15 23 0 44 6 52 16 10 12 24 14 58 10 24 -3
40 -2 35 3 -15 13 -73 21 -79 11 -8 -13 -62 -13 -70 0 -8 14 -78 13 -92 -1 -6
-6 -17 -9 -25 -7 -16 6 73 48 101 48 12 0 21 7 21 15 0 18 -1 18 -74 4 -40 -9
-60 -9 -68 -1 -15 15 21 32 82 39 56 6 63 18 23 34 -16 7 -23 13 -15 16 6 3
12 13 12 24 0 12 7 19 20 19 11 0 20 4 20 8 0 12 -50 33 -61 27 -12 -8 -12
-35 1 -35 6 0 10 -4 10 -10 0 -5 -16 -10 -35 -10 -35 0 -51 20 -17 20 16 1 16
2 -1 14 -17 13 -16 15 16 31 20 9 44 16 54 14 19 -2 93 27 93 37 0 8 -58 0
-82 -11 -14 -5 -18 -2 -18 14 0 17 6 21 31 21 21 0 32 6 36 18 3 14 13 17 41
15 l37 -2 -40 10 c-22 5 -53 12 -70 15 -28 5 -29 4 -12 -10 18 -14 18 -15 -1
-25 -25 -13 -30 -8 -24 29 3 20 10 30 22 30 10 0 30 6 45 14 34 18 16 30 -31
22 -27 -6 -34 -4 -34 9 0 8 9 15 20 15 10 0 23 6 27 13 11 18 67 37 91 30 12
-3 28 3 41 16 12 12 32 21 46 21 14 0 25 5 25 10 0 6 -13 10 -30 10 -16 0 -30
-4 -30 -10 0 -5 -7 -10 -15 -10 -8 0 -15 -4 -15 -10 0 -5 -24 -10 -53 -10 -29
0 -57 -4 -62 -9 -6 -5 -21 -11 -35 -13 -22 -3 -25 -8 -28 -51 -4 -59 -27 -59
-28 0 0 22 -4 45 -8 52 -14 22 2 44 27 37 13 -3 35 1 51 9 16 8 35 15 42 15 8
0 14 5 14 10 0 13 -33 13 -64 -1 -20 -10 -29 -8 -50 8 l-25 20 22 19 22 19
-24 3 c-15 3 -30 -3 -38 -14 -10 -14 -16 -15 -25 -6 -9 9 -8 15 7 25 12 9 14
16 7 21 -6 4 -9 13 -6 21 4 10 -4 15 -28 17 -23 2 -34 9 -36 22 -3 15 0 17 14
11 43 -18 64 -17 71 1 3 11 11 22 16 26 14 9 75 -1 114 -18z m130 20 c-3 -3
-12 -4 -19 -1 -8 3 -5 6 6 6 11 1 17 -2 13 -5z m-727 -33 c0 -12 -20 -25 -27
-18 -7 7 6 27 18 27 5 0 9 -4 9 -9z m126 -10 c-3 -5 -15 -11 -26 -14 -17 -4
-19 -3 -9 9 12 15 44 20 35 5z m90 -18 c-10 -10 -19 5 -10 18 6 11 8 11 12 0
2 -7 1 -15 -2 -18z m74 2 c10 -12 10 -15 -3 -15 -9 0 -27 -10 -41 -22 -24 -21
-24 -25 -10 -43 14 -19 16 -19 28 -2 7 9 25 17 40 17 24 0 25 2 16 20 -14 26
3 27 35 1 29 -22 16 -41 -27 -41 -18 0 -28 -5 -28 -14 0 -16 -53 -31 -70 -21
-5 3 -10 14 -10 25 0 12 -15 24 -45 37 -50 20 -55 28 -24 38 15 5 25 2 31 -9
13 -23 26 -20 55 14 28 34 35 36 53 15z m115 -35 c-3 -5 -10 -10 -16 -10 -5 0
-9 5 -9 10 0 6 7 10 16 10 8 0 12 -4 9 -10z m-427 -25 c-3 -3 -9 2 -12 12 -6
14 -5 15 5 6 7 -7 10 -15 7 -18z m-1288 -4 c0 -6 -4 -13 -10 -16 -5 -3 -10 1
-10 9 0 9 5 16 10 16 6 0 10 -4 10 -9z m-73 -48 c-9 -9 -19 -14 -22 -11 -3 3
2 13 11 22 9 9 19 14 22 11 3 -3 -2 -13 -11 -22z m2248 6 c10 -15 -1 -23 -20
-15 -9 3 -13 10 -10 16 8 13 22 13 30 -1z m-482 -19 c-4 -16 -8 -18 -19 -9
-20 16 -17 29 5 29 14 0 18 -5 14 -20z m81 -2 c-8 -29 -26 -40 -39 -27 -7 7
-2 16 15 29 32 25 33 25 24 -2z m-279 -8 c3 -5 1 -10 -6 -10 -7 0 -21 -7 -31
-17 -10 -9 -21 -13 -25 -9 -4 4 3 16 17 26 29 22 36 24 45 10z m57 -53 c-12
-6 -22 -14 -22 -19 0 -5 -4 -6 -10 -3 -17 10 -11 25 13 34 29 11 47 0 19 -12z
m88 13 c0 -5 -7 -10 -15 -10 -8 0 -15 5 -15 10 0 6 7 10 15 10 8 0 15 -4 15
-10z m1520 0 c12 -8 11 -10 -7 -10 -12 0 -23 -4 -25 -9 -1 -4 -12 -5 -23 0
-19 7 -19 8 3 8 12 1 22 6 22 11 0 13 11 13 30 0z m-1423 -19 c17 -14 20 -24
14 -52 l-7 -34 -14 25 c-8 14 -13 28 -12 32 1 3 -5 12 -13 18 -8 7 -15 16 -15
21 0 15 23 10 47 -10z m1503 -16 c-7 -8 -16 -15 -21 -15 -5 0 -9 7 -9 15 0 9
9 15 21 15 18 0 19 -2 9 -15z m-1640 -5 c0 -5 -4 -10 -10 -10 -5 0 -10 5 -10
10 0 6 5 10 10 10 6 0 10 -4 10 -10z m80 0 c8 -5 10 -10 4 -10 -7 0 -14 -9
-17 -20 -3 -12 -14 -20 -26 -20 -26 0 -26 4 -3 35 19 28 21 28 42 15z m1655 3
l48 -6 -34 -12 c-22 -7 -39 -8 -46 -2 -9 7 -13 5 -13 -7 0 -9 5 -16 12 -16 6
0 8 -3 5 -7 -9 -8 -47 27 -47 44 0 15 8 16 75 6z m-129 -50 c-10 -10 -19 5
-10 18 6 11 8 11 12 0 2 -7 1 -15 -2 -18z m279 18 c10 -17 -12 -21 -25 -6 -10
12 -10 15 3 15 9 0 18 -4 22 -9z m-2165 -11 c0 -5 -8 -10 -17 -10 -15 0 -16 2
-3 10 19 12 20 12 20 0z m2100 0 c17 -11 13 -15 -22 -24 -24 -5 -28 -3 -28 14
0 21 24 27 50 10z m-2302 -30 c4 -21 2 -22 -12 -7 -19 19 -21 40 -3 35 6 -3
14 -15 15 -28z m299 24 c-3 -3 -12 -4 -19 -1 -8 3 -5 6 6 6 11 1 17 -2 13 -5z
m148 -24 c0 -10 -12 -16 -33 -18 -31 -3 -33 -2 -22 18 13 24 55 24 55 0z
m1015 11 c0 -5 12 -12 27 -16 21 -5 24 -8 12 -16 -20 -13 -39 -11 -36 3 1 7
-8 14 -21 16 -12 2 -20 8 -17 13 8 12 35 12 35 0z m-872 -23 c-3 -7 -13 -15
-23 -16 -15 -4 -16 -2 -4 12 17 19 32 21 27 4z m-248 -22 c0 -17 -38 -28 -46
-14 -7 11 13 28 34 28 6 0 12 -6 12 -14z m-1220 -20 c0 -6 21 -18 48 -25 26
-7 41 -16 33 -18 -10 -4 -8 -10 10 -24 23 -17 23 -18 4 -38 -13 -16 -15 -25
-8 -32 8 -8 14 -5 22 10 11 19 13 20 35 6 12 -8 26 -12 29 -8 10 10 8 -20 -3
-37 -8 -12 -10 -12 -16 3 -3 9 -15 17 -25 17 -26 0 -25 -36 1 -43 14 -4 20
-13 19 -34 0 -15 -3 -22 -6 -15 -6 14 -53 17 -53 2 0 -5 -9 -10 -20 -10 -11 0
-20 -4 -20 -10 0 -5 7 -10 15 -10 8 0 15 -6 15 -14 0 -17 -27 -29 -35 -16 -10
16 -25 11 -19 -5 5 -11 -3 -17 -25 -21 -25 -5 -31 -12 -31 -31 0 -20 4 -24 18
-18 9 4 25 10 35 12 9 3 17 12 17 19 0 8 9 14 20 14 11 0 20 -6 20 -14 0 -8
-9 -18 -20 -21 -11 -3 -20 -11 -20 -16 0 -5 -9 -9 -20 -9 -24 0 -26 -16 -4
-28 9 -5 14 -14 11 -19 -8 -13 -57 -23 -57 -12 0 5 -8 9 -17 9 -9 0 -27 10
-40 22 -22 21 -23 27 -23 181 l0 159 48 48 c45 46 62 53 62 26z m1580 -21 c0
-33 -4 -45 -15 -45 -8 0 -15 5 -15 10 0 6 5 10 10 10 13 0 13 27 0 35 -6 4
-17 2 -24 -4 -14 -12 -26 -5 -26 17 0 10 7 12 24 8 14 -3 28 -2 31 4 11 19 15
10 15 -35z m1050 31 c0 -3 -4 -8 -10 -11 -5 -3 -10 -1 -10 4 0 6 5 11 10 11 6
0 10 -2 10 -4z m-1663 -38 c-3 -8 -6 -5 -6 6 -1 11 2 17 5 13 3 -3 4 -12 1
-19z m-822 -8 c3 -5 -3 -10 -15 -10 -12 0 -18 5 -15 10 3 6 10 10 15 10 5 0
12 -4 15 -10z m745 -16 c0 -8 -7 -14 -15 -14 -17 0 -18 2 -9 24 7 18 24 12 24
-10z m525 16 c-3 -5 -12 -7 -20 -3 -21 7 -19 13 6 13 11 0 18 -4 14 -10z
m-1185 -42 c0 -26 -17 -14 -22 17 -4 20 -3 23 8 14 8 -6 14 -20 14 -31z m930
32 c-8 -5 -24 -9 -35 -9 l-20 0 20 9 c11 5 27 9 35 9 13 1 13 0 0 -9z m2336
-27 c-10 -10 -19 5 -10 18 6 11 8 11 12 0 2 -7 1 -15 -2 -18z m-2556 -8 c0 -8
-4 -15 -10 -15 -5 0 -10 7 -10 15 0 8 5 15 10 15 6 0 10 -7 10 -15z m270 5 c0
-5 -9 -10 -21 -10 -11 0 -17 5 -14 10 3 6 13 10 21 10 8 0 14 -4 14 -10z m140
0 c0 -5 -4 -10 -10 -10 -5 0 -10 5 -10 10 0 6 5 10 10 10 6 0 10 -4 10 -10z
m170 0 c0 -5 -9 -10 -20 -10 -11 0 -20 5 -20 10 0 6 9 10 20 10 11 0 20 -4 20
-10z m-210 -9 c0 -11 -31 -24 -39 -16 -3 3 1 10 9 15 19 12 30 12 30 1z m140
-1 c0 -5 -4 -10 -10 -10 -5 0 -10 5 -10 10 0 6 5 10 10 10 6 0 10 -4 10 -10z
m-290 -14 c0 -2 -7 -6 -15 -10 -8 -3 -15 -1 -15 4 0 6 7 10 15 10 8 0 15 -2
15 -4z m-160 -16 c0 -5 -7 -10 -15 -10 -8 0 -15 5 -15 10 0 6 7 10 15 10 8 0
15 -4 15 -10z m526 3 c-11 -12 -86 -32 -86 -24 0 4 17 12 38 18 48 14 57 15
48 6z m-426 -7 c0 -2 -7 -6 -15 -10 -8 -3 -15 -1 -15 4 0 6 7 10 15 10 8 0 15
-2 15 -4z m150 0 c0 -12 -82 -55 -95 -50 -12 5 -7 12 22 30 33 20 73 31 73 20z
m140 -56 c0 -5 -9 -10 -20 -10 -11 0 -20 5 -20 10 0 6 9 10 20 10 11 0 20 -4
20 -10z m3010 -15 c10 -13 9 -15 -8 -15 -22 0 -36 13 -25 24 10 10 20 7 33 -9z
m-4150 -5 c0 -5 -5 -10 -10 -10 -6 0 -8 -10 -4 -24 4 -18 1 -27 -14 -35 -12
-6 -22 -21 -24 -33 -4 -25 -28 -37 -28 -14 0 26 -18 18 -22 -8 -3 -22 -5 -23
-22 -11 -16 12 -17 17 -6 30 7 8 16 13 20 10 12 -7 58 33 66 57 11 36 44 64
44 38z m120 0 c0 -5 -4 -10 -10 -10 -5 0 -10 5 -10 10 0 6 5 10 10 10 6 0 10
-4 10 -10z m842 -22 c-9 -9 -15 -9 -24 0 -9 9 -7 12 12 12 19 0 21 -3 12 -12z
m263 -18 c3 -5 -1 -10 -9 -10 -9 0 -16 5 -16 10 0 6 4 10 9 10 6 0 13 -4 16
-10z m70 0 c3 -5 -1 -10 -10 -10 -9 0 -13 5 -10 10 3 6 8 10 10 10 2 0 7 -4
10 -10z m-1249 -32 c4 -6 -1 -17 -11 -24 -13 -9 -16 -20 -11 -39 6 -22 11 -26
31 -21 13 3 27 2 30 -4 4 -6 -11 -10 -37 -10 -24 0 -52 -2 -63 -4 -11 -2 -14
-1 -7 1 7 3 10 12 7 23 -3 10 -1 21 5 25 6 4 9 19 5 34 -5 23 -2 27 19 29 14
1 28 -3 32 -10z m854 -12 c0 -8 -4 -17 -9 -20 -10 -7 -23 19 -14 28 11 11 23
6 23 -8z m2960 -56 c0 -5 -13 -10 -30 -10 -16 0 -30 5 -30 10 0 6 14 10 30 10
17 0 30 -4 30 -10z m-120 -24 c0 -9 -10 -13 -25 -12 -27 1 -33 11 -12 19 23
10 37 7 37 -7z m-3566 -17 c-3 -5 -10 -7 -15 -3 -5 3 -7 10 -3 15 3 5 10 7 15
3 5 -3 7 -10 3 -15z m3453 15 c-3 -3 -12 -4 -19 -1 -8 3 -5 6 6 6 11 1 17 -2
13 -5z m-3749 -16 c-7 -19 -38 -22 -38 -4 0 10 9 16 21 16 12 0 19 -5 17 -12z
m194 -23 c0 -5 -5 -11 -11 -13 -6 -2 -11 4 -11 13 0 9 5 15 11 13 6 -2 11 -8
11 -13z m3382 3 c-7 -11 -54 -10 -54 1 0 5 13 9 30 9 16 -1 27 -5 24 -10z m53
-4 c-3 -3 -12 -4 -19 -1 -8 3 -5 6 6 6 11 1 17 -2 13 -5z m-3557 -13 c0 -6 -4
-12 -9 -15 -13 -8 -42 4 -35 15 7 12 44 12 44 0z m934 -17 c4 -10 1 -14 -6
-12 -15 5 -23 28 -10 28 5 0 13 -7 16 -16z m2651 6 c3 -5 1 -10 -4 -10 -6 0
-11 5 -11 10 0 6 2 10 4 10 3 0 8 -4 11 -10z m262 -6 c-3 -3 -12 -4 -19 -1 -8
3 -5 6 6 6 11 1 17 -2 13 -5z m408 -4 c3 -5 -1 -10 -10 -10 -9 0 -13 5 -10 10
3 6 8 10 10 10 2 0 7 -4 10 -10z m-529 -23 c4 -3 4 -13 0 -22 -5 -15 -8 -15
-28 -1 -12 9 -30 16 -40 16 -10 0 -18 5 -18 11 0 11 75 8 86 -4z m-3856 -21
c0 -8 -7 -19 -15 -26 -13 -10 -19 -10 -35 5 -28 25 -25 30 15 32 23 1 35 -3
35 -11z m100 -6 c0 -5 -7 -10 -15 -10 -8 0 -15 5 -15 10 0 6 7 10 15 10 8 0
15 -4 15 -10z m114 -5 c-6 -16 -44 -21 -44 -7 0 14 12 22 31 22 12 0 16 -5 13
-15z m96 -4 c0 -12 -21 -19 -37 -13 -22 8 -14 22 12 22 14 0 25 -4 25 -9z
m3440 0 c0 -9 -41 -23 -48 -16 -2 2 -1 8 3 14 8 13 45 15 45 2z m-2012 -13
c-3 -7 -14 -14 -26 -16 -16 -3 -20 1 -16 12 7 19 48 22 42 4z m1942 -8 c0 -5
-5 -10 -11 -10 -5 0 -7 5 -4 10 3 6 8 10 11 10 2 0 4 -4 4 -10z m220 0 c0 -5
-4 -10 -10 -10 -5 0 -10 5 -10 10 0 6 5 10 10 10 6 0 10 -4 10 -10z m320 6 c0
-11 -19 -15 -25 -6 -3 5 1 10 9 10 9 0 16 -2 16 -4z m-4093 -12 c-3 -3 -12 -4
-19 -1 -8 3 -5 6 6 6 11 1 17 -2 13 -5z m3668 -46 c-9 -5 -24 -7 -33 -3 -15 6
-15 8 3 15 28 10 53 0 30 -12z m-3515 3 c0 -12 -39 -25 -47 -17 -4 3 1 6 10 6
10 0 17 5 17 10 0 6 5 10 10 10 6 0 10 -4 10 -9z m-260 -11 c0 -5 -4 -10 -10
-10 -5 0 -10 5 -10 10 0 6 5 10 10 10 6 0 10 -4 10 -10z m1660 1 c0 -11 -39
-25 -47 -18 -3 3 -2 10 2 16 8 13 45 15 45 2z m-95 -31 c-3 -5 -10 -10 -16
-10 -5 0 -9 5 -9 10 0 6 7 10 16 10 8 0 12 -4 9 -10z m2890 0 c-3 -5 -17 -10
-31 -10 -14 0 -22 4 -19 10 3 6 17 10 31 10 14 0 22 -4 19 -10z m-2787 -34
c-10 -7 -18 -19 -18 -26 0 -8 -7 -10 -22 -5 -13 3 -34 8 -46 10 -38 6 -38 15
-1 15 19 0 41 5 49 10 8 5 24 10 35 10 19 -1 19 -1 3 -14z m2056 -17 c-3 -5
-10 -7 -15 -3 -5 3 -7 10 -3 15 3 5 10 7 15 3 5 -3 7 -10 3 -15z m-3559 1 c3
-5 1 -10 -4 -10 -6 0 -11 5 -11 10 0 6 2 10 4 10 3 0 8 -4 11 -10z m395 0 c0
-5 -7 -7 -15 -4 -8 4 -15 8 -15 10 0 2 7 4 15 4 8 0 15 -4 15 -10z m957 4 c-3
-3 -12 -4 -19 -1 -8 3 -5 6 6 6 11 1 17 -2 13 -5z m-57 -13 c0 -12 -20 -25
-27 -18 -7 7 6 27 18 27 5 0 9 -4 9 -9z m-1436 -31 c-10 -4 -21 -6 -24 -3 -8
7 24 22 34 16 5 -4 1 -10 -10 -13z m4029 13 c-7 -2 -19 -2 -25 0 -7 3 -2 5 12
5 14 0 19 -2 13 -5z m314 1 c-3 -3 -12 -4 -19 -1 -8 3 -5 6 6 6 11 1 17 -2 13
-5z m-4383 -38 c-7 -18 -64 -30 -78 -16 -7 7 0 10 22 10 18 0 32 5 32 10 0 6
7 10 15 10 8 0 12 -6 9 -14z m3636 9 c0 -16 -27 -31 -47 -27 -31 6 -29 20 5
25 15 2 30 5 35 6 4 0 7 -1 7 -4z m-2000 -64 c0 -5 -7 -11 -15 -15 -15 -5 -20
5 -8 17 9 10 23 9 23 -2z m1970 -17 c0 -2 -9 -4 -21 -4 -11 0 -18 4 -14 10 5
8 35 3 35 -6z m30 -4 c0 -5 -4 -10 -10 -10 -5 0 -10 5 -10 10 0 6 5 10 10 10
6 0 10 -4 10 -10z m862 2 c12 -5 15 -11 8 -21 -7 -12 -12 -12 -23 -3 -8 7 -29
11 -47 10 -19 -2 -35 2 -37 10 -5 13 68 16 99 4z m-4802 -12 c0 -5 -7 -10 -16
-10 -8 0 -12 5 -9 10 3 6 10 10 16 10 5 0 9 -4 9 -10z m70 -4 c0 -11 -19 -15
-25 -6 -3 5 1 10 9 10 9 0 16 -2 16 -4z m2133 -3 c-7 -2 -21 -2 -30 0 -10 3
-4 5 12 5 17 0 24 -2 18 -5z m-2283 -21 c0 -13 -12 -22 -22 -16 -10 6 -1 24
13 24 5 0 9 -4 9 -8z m2060 -2 c0 -5 -7 -10 -15 -10 -8 0 -15 -4 -15 -10 0 -5
-7 -10 -15 -10 -23 0 -18 19 8 30 30 12 37 12 37 0z m-303 -6 c-3 -3 -12 -4
-19 -1 -8 3 -5 6 6 6 11 1 17 -2 13 -5z m-1789 -16 c18 -18 16 -44 -2 -29 -8
6 -18 11 -22 10 -20 -3 -24 2 -12 16 16 18 21 18 36 3z m4917 2 c-3 -5 -10
-10 -16 -10 -5 0 -9 5 -9 10 0 6 7 10 16 10 8 0 12 -4 9 -10z m-950 -10 c3 -5
2 -10 -4 -10 -5 0 -13 5 -16 10 -3 6 -2 10 4 10 5 0 13 -4 16 -10z m-4035 -4
c0 -3 -4 -8 -10 -11 -5 -3 -10 -1 -10 4 0 6 5 11 10 11 6 0 10 -2 10 -4z m120
-6 c0 -5 -4 -10 -10 -10 -5 0 -10 5 -10 10 0 6 5 10 10 10 6 0 10 -4 10 -10z
m47 4 c-3 -3 -12 -4 -19 -1 -8 3 -5 6 6 6 11 1 17 -2 13 -5z m2033 -35 c0 -10
-4 -19 -9 -19 -10 0 -21 36 -14 44 10 10 23 -5 23 -25z m300 -19 c0 -23 -25
-27 -33 -6 -7 16 1 26 20 26 7 0 13 -9 13 -20z m-2345 -17 c-22 -16 -32 -16
-40 -3 -7 11 35 31 49 22 5 -3 1 -11 -9 -19z m725 11 c0 -8 -4 -12 -10 -9 -5
3 -10 10 -10 16 0 5 5 9 10 9 6 0 10 -7 10 -16z m4120 10 c0 -10 -58 -64 -69
-64 -21 0 -11 28 17 49 26 20 52 27 52 15z m-4927 -35 c-5 -5 -29 -12 -52 -14
-31 -3 -41 0 -41 11 0 10 14 14 52 14 36 0 49 -3 41 -11z m191 -13 c-3 -8 4
-16 18 -21 l23 -8 -22 -4 c-13 -2 -23 -10 -24 -16 0 -7 -5 1 -10 18 -6 20 -5
32 4 37 16 10 17 10 11 -6z m153 8 c-3 -3 -12 -4 -19 -1 -8 3 -5 6 6 6 11 1
17 -2 13 -5z m420 -10 c-3 -3 -12 -4 -19 -1 -8 3 -5 6 6 6 11 1 17 -2 13 -5z
m1638 -4 c-3 -5 -11 -10 -16 -10 -6 0 -7 5 -4 10 3 6 11 10 16 10 6 0 7 -4 4
-10z m-325 -15 c0 -8 -7 -15 -15 -15 -8 0 -15 7 -15 15 0 8 7 15 15 15 8 0 15
-7 15 -15z m-2130 -5 c0 -5 -4 -10 -9 -10 -6 0 -13 5 -16 10 -3 6 1 10 9 10 9
0 16 -4 16 -10z m520 -10 c0 -5 -2 -10 -4 -10 -3 0 -8 5 -11 10 -3 6 -1 10 4
10 6 0 11 -4 11 -10z m-390 -10 c0 -5 -2 -10 -4 -10 -3 0 -8 5 -11 10 -3 6 -1
10 4 10 6 0 11 -4 11 -10z m1927 4 c-3 -3 -12 -4 -19 -1 -8 3 -5 6 6 6 11 1
17 -2 13 -5z m2443 -4 c0 -5 -2 -10 -4 -10 -3 0 -8 5 -11 10 -3 6 -1 10 4 10
6 0 11 -4 11 -10z m-1947 -17 c-7 -2 -21 -2 -30 0 -10 3 -4 5 12 5 17 0 24 -2
18 -5z m1977 -8 c-7 -9 -15 -13 -19 -10 -3 3 1 10 9 15 21 14 24 12 10 -5z
m-2470 -15 c0 -5 -19 -10 -42 -10 -32 0 -39 3 -28 10 20 13 70 13 70 0z m2635
-1 c-8 -11 -55 -12 -55 -1 0 5 14 9 30 10 17 0 28 -4 25 -9z m-107 -16 c12
-24 4 -43 -14 -36 -16 6 -20 53 -4 53 5 0 13 -8 18 -17z m342 3 c0 -15 -21
-26 -48 -26 -13 0 -11 5 8 20 30 23 40 25 40 6z m-4780 -5 c0 -5 -6 -11 -14
-14 -9 -4 -12 -14 -9 -26 4 -16 1 -21 -16 -21 -12 0 -21 6 -21 15 0 8 5 15 11
15 6 0 9 6 6 14 -6 14 6 24 31 25 6 1 12 -3 12 -8z m4360 -16 c0 -16 -6 -25
-15 -25 -28 0 -18 40 13 49 1 1 2 -10 2 -24z m-4064 -12 c-7 -7 -26 7 -26 19
0 6 6 6 15 -2 9 -7 13 -15 11 -17z m2086 20 c-6 -2 -10 -9 -6 -14 6 -11 -21
-12 -56 -2 l-25 7 30 7 c36 8 75 10 57 2z m-2462 -23 c-6 -11 -17 -20 -25 -20
-8 0 -19 9 -25 20 -10 18 -8 20 25 20 33 0 35 -2 25 -20z m110 -21 c0 -5 -4
-9 -10 -9 -5 0 -10 7 -10 16 0 8 5 12 10 9 6 -3 10 -10 10 -16z m193 4 c-7 -2
-19 -2 -25 0 -7 3 -2 5 12 5 14 0 19 -2 13 -5z m1017 -2 c0 -12 -20 -25 -27
-18 -7 7 6 27 18 27 5 0 9 -4 9 -9z m703 2 c-7 -2 -21 -2 -30 0 -10 3 -4 5 12
5 17 0 24 -2 18 -5z m2367 -3 c0 -5 -7 -10 -15 -10 -8 0 -15 5 -15 10 0 6 7
10 15 10 8 0 15 -4 15 -10z m-4140 -10 c0 -5 -18 -10 -40 -10 -22 0 -40 5 -40
10 0 6 18 10 40 10 22 0 40 -4 40 -10z m2300 0 c0 -5 -6 -10 -14 -10 -8 0 -18
5 -21 10 -3 6 3 10 14 10 12 0 21 -4 21 -10z m-645 -10 c-3 -5 -14 -10 -23
-10 -15 0 -15 2 -2 10 20 13 33 13 25 0z m2543 -12 c8 -8 15 -8 27 2 8 7 15 8
15 2 0 -5 -14 -15 -31 -21 -24 -8 -34 -8 -45 3 -8 8 -14 17 -14 20 0 11 36 6
48 -6z m-2237 -21 c-11 -11 -41 -3 -41 11 0 5 12 7 26 4 17 -3 22 -8 15 -15z
m-921 3 c0 -5 -2 -10 -4 -10 -3 0 -8 5 -11 10 -3 6 -1 10 4 10 6 0 11 -4 11
-10z m480 0 c0 -5 -4 -10 -10 -10 -5 0 -10 5 -10 10 0 6 5 10 10 10 6 0 10 -4
10 -10z m793 3 c-7 -2 -21 -2 -30 0 -10 3 -4 5 12 5 17 0 24 -2 18 -5z m-133
-17 c0 -3 -4 -8 -10 -11 -5 -3 -10 -1 -10 4 0 6 5 11 10 11 6 0 10 -2 10 -4z
m2060 -27 c0 -12 -67 -12 -74 0 -3 5 12 9 34 9 22 0 40 -3 40 -9z m610 1 c0
-5 -2 -10 -4 -10 -3 0 -8 5 -11 10 -3 6 -1 10 4 10 6 0 11 -4 11 -10z m-3990
-4 c0 -11 -19 -15 -25 -6 -3 5 1 10 9 10 9 0 16 -2 16 -4z m1460 -6 c0 -5 -9
-10 -19 -10 -11 0 -23 5 -26 10 -4 6 5 10 19 10 14 0 26 -4 26 -10z m-1230
-40 c0 -5 -4 -10 -10 -10 -5 0 -10 5 -10 10 0 6 5 10 10 10 6 0 10 -4 10 -10z
m460 -15 c0 -8 -4 -15 -10 -15 -5 0 -10 7 -10 15 0 8 5 15 10 15 6 0 10 -7 10
-15z m365 5 c-3 -5 -17 -10 -31 -10 -13 0 -24 5 -24 10 0 6 14 10 31 10 17 0
28 -4 24 -10z m1632 4 c-3 -3 -12 -4 -19 -1 -8 3 -5 6 6 6 11 1 17 -2 13 -5z
m1533 -8 c0 -3 -4 -8 -10 -11 -5 -3 -10 -1 -10 4 0 6 5 11 10 11 6 0 10 -2 10
-4z m-3940 -16 c0 -5 -4 -10 -10 -10 -5 0 -10 5 -10 10 0 6 5 10 10 10 6 0 10
-4 10 -10z m1140 -60 c0 -5 -4 -10 -10 -10 -5 0 -10 5 -10 10 0 6 5 10 10 10
6 0 10 -4 10 -10z m2800 0 c0 -5 -5 -10 -11 -10 -5 0 -7 5 -4 10 3 6 8 10 11
10 2 0 4 -4 4 -10z m-2735 -22 c-11 -6 -23 -16 -26 -21 -4 -5 -10 -4 -14 3 -9
14 12 30 40 30 l20 -1 -20 -11z m-1505 -34 c0 -8 -5 -12 -10 -9 -6 4 -8 11 -5
16 9 14 15 11 15 -7z m90 6 c0 -5 -5 -10 -11 -10 -5 0 -7 5 -4 10 3 6 8 10 11
10 2 0 4 -4 4 -10z m1510 0 c0 -5 -5 -10 -11 -10 -5 0 -7 5 -4 10 3 6 8 10 11
10 2 0 4 -4 4 -10z m-90 -30 c0 -5 -7 -10 -15 -10 -8 0 -15 5 -15 10 0 6 7 10
15 10 8 0 15 -4 15 -10z m-1310 -35 c0 -8 -7 -15 -15 -15 -16 0 -20 12 -8 23
11 12 23 8 23 -8z m1310 -19 c0 -11 -19 -15 -25 -6 -3 5 1 10 9 10 9 0 16 -2
16 -4z m27 -22 c-3 -3 -12 -4 -19 -1 -8 3 -5 6 6 6 11 1 17 -2 13 -5z m103 -4
c0 -5 -6 -10 -14 -10 -8 0 -16 -6 -19 -14 -9 -22 -84 -43 -99 -28 -9 9 -7 12
8 12 11 0 29 7 40 15 10 8 27 15 37 15 9 0 17 5 17 10 0 6 7 10 15 10 8 0 15
-4 15 -10z m-315 -10 c3 -5 -1 -10 -10 -10 -9 0 -13 5 -10 10 3 6 8 10 10 10
2 0 7 -4 10 -10z m155 -70 c0 -5 -9 -10 -20 -10 -11 0 -20 5 -20 10 0 6 9 10
20 10 11 0 20 -4 20 -10z m1335 -20 c3 -5 -1 -10 -9 -10 -8 0 -18 5 -21 10 -3
6 1 10 9 10 8 0 18 -4 21 -10z m-1848 -36 c-3 -3 -12 -4 -19 -1 -8 3 -5 6 6 6
11 1 17 -2 13 -5z m571 -11 c2 -9 -10 -13 -42 -13 -27 0 -46 5 -46 11 0 6 9 9
20 6 11 -3 23 -1 26 4 8 13 36 7 42 -8z m-88 -33 c0 -5 -4 -10 -10 -10 -5 0
-10 5 -10 10 0 6 5 10 10 10 6 0 10 -4 10 -10z m108 -74 c27 11 102 14 102 4
0 -12 -74 -32 -93 -24 -9 3 -24 1 -34 -4 -26 -14 -59 4 -43 24 9 10 17 11 32
3 11 -6 27 -7 36 -3z m1222 -5 c0 -4 -12 -14 -27 -21 -16 -8 -32 -16 -37 -19
-11 -5 1 17 21 41 14 16 43 15 43 -1z m-2285 -21 c-3 -5 -10 -10 -16 -10 -5 0
-9 5 -9 10 0 6 7 10 16 10 8 0 12 -4 9 -10z m975 -14 c0 -9 -30 -14 -35 -6 -4
6 3 10 14 10 12 0 21 -2 21 -4z m44 -22 c20 -8 11 -24 -15 -24 -10 0 -19 7
-19 15 0 16 9 19 34 9z m1046 -4 c0 -5 -4 -10 -10 -10 -5 0 -10 5 -10 10 0 6
5 10 10 10 6 0 10 -4 10 -10z m-980 -4 c0 -3 -4 -8 -10 -11 -5 -3 -10 -1 -10
4 0 6 5 11 10 11 6 0 10 -2 10 -4z m940 -11 c0 -9 -9 -15 -25 -15 -29 0 -34
16 -7 23 30 8 32 7 32 -8z m-1680 -45 c0 -5 -5 -10 -11 -10 -5 0 -7 5 -4 10 3
6 8 10 11 10 2 0 4 -4 4 -10z m570 -20 c0 -5 -7 -10 -15 -10 -8 0 -15 5 -15
10 0 6 7 10 15 10 8 0 15 -4 15 -10z m194 -5 c-4 -8 -10 -12 -15 -9 -11 6 -2
24 11 24 5 0 7 -7 4 -15z m-104 -4 c0 -5 -7 -11 -15 -15 -15 -5 -20 5 -8 17 9
10 23 9 23 -2z m-160 -31 c0 -5 -5 -10 -11 -10 -5 0 -7 5 -4 10 3 6 8 10 11
10 2 0 4 -4 4 -10z m758 -2 c-3 -7 -15 -13 -27 -13 -12 0 -26 -6 -30 -13 -6
-10 -10 -10 -20 2 -10 11 -9 16 3 23 27 15 78 15 74 1z m-1488 -12 c0 -11 -19
-15 -25 -6 -3 5 1 10 9 10 9 0 16 -2 16 -4z m1210 -3 c0 -12 -59 -43 -80 -43
-10 0 -22 5 -25 10 -4 6 5 10 20 10 14 0 28 7 31 15 6 15 54 22 54 8z m-1120
-17 c0 -3 -4 -8 -10 -11 -5 -3 -10 -1 -10 4 0 6 5 11 10 11 6 0 10 -2 10 -4z
m108 -7 c-2 -6 -8 -10 -13 -10 -5 0 -11 4 -13 10 -2 6 4 11 13 11 9 0 15 -5
13 -11z m-248 -44 c-13 -16 -60 -21 -60 -6 0 12 18 19 49 20 20 1 21 -1 11
-14z m190 5 c0 -5 -7 -10 -15 -10 -8 0 -15 5 -15 10 0 6 7 10 15 10 8 0 15 -4
15 -10z m940 0 c0 -5 -7 -10 -16 -10 -8 0 -12 5 -9 10 3 6 10 10 16 10 5 0 9
-4 9 -10z m131 0 c6 0 5 -8 -1 -20 -6 -11 -16 -17 -25 -14 -8 4 -18 -1 -21
-10 -7 -18 -44 -22 -44 -5 0 6 9 13 20 16 10 3 22 14 26 25 3 12 11 17 21 14
8 -3 19 -6 24 -6z m-361 -20 c0 -5 -2 -10 -4 -10 -3 0 -8 5 -11 10 -3 6 -1 10
4 10 6 0 11 -4 11 -10z m520 0 c0 -5 -4 -10 -10 -10 -5 0 -10 5 -10 10 0 6 5
10 10 10 6 0 10 -4 10 -10z m-680 -40 c0 -5 -4 -10 -10 -10 -5 0 -10 5 -10 10
0 6 5 10 10 10 6 0 10 -4 10 -10z m-503 -26 c-3 -3 -12 -4 -19 -1 -8 3 -5 6 6
6 11 1 17 -2 13 -5z m643 -34 c0 -5 -5 -10 -11 -10 -5 0 -7 5 -4 10 3 6 8 10
11 10 2 0 4 -4 4 -10z m360 -20 c0 -5 -4 -10 -10 -10 -5 0 -10 5 -10 10 0 6 5
10 10 10 6 0 10 -4 10 -10z m-1070 -31 c0 -5 -7 -9 -15 -9 -15 0 -20 12 -9 23
8 8 24 -1 24 -14z m-20 -209 c0 -5 -7 -10 -15 -10 -8 0 -15 5 -15 10 0 6 7 10
15 10 8 0 15 -4 15 -10z m2720 -340 c0 -5 -7 -10 -15 -10 -8 0 -15 5 -15 10 0
6 7 10 15 10 8 0 15 -4 15 -10z m-1030 -240 c0 -5 -4 -10 -10 -10 -5 0 -10 5
-10 10 0 6 5 10 10 10 6 0 10 -4 10 -10z m-253 -6 c-3 -3 -12 -4 -19 -1 -8 3
-5 6 6 6 11 1 17 -2 13 -5z m293 -29 c0 -18 -5 -25 -19 -25 -17 0 -18 3 -8 25
15 32 27 32 27 0z m-163 -31 c-3 -3 -12 -4 -19 -1 -8 3 -5 6 6 6 11 1 17 -2
13 -5z m-197 -94 c0 -5 -4 -10 -10 -10 -5 0 -10 5 -10 10 0 6 5 10 10 10 6 0
10 -4 10 -10z m167 -25 c7 -20 -2 -29 -21 -22 -9 4 -13 13 -10 22 8 19 23 19
31 0z m-194 -32 c-7 -2 -19 -2 -25 0 -7 3 -2 5 12 5 14 0 19 -2 13 -5z m90
-56 c16 3 27 1 27 -6 0 -6 -8 -11 -17 -12 -10 0 -30 -2 -45 -4 -22 -3 -28 0
-28 16 0 16 4 18 18 10 9 -5 30 -7 45 -4z m-93 -27 c-20 -13 -33 -13 -25 0 3
6 14 10 23 10 15 0 15 -2 2 -10z m116 -20 c17 0 22 -4 18 -15 -7 -18 -33 -19
-56 -1 -22 16 -23 30 -2 22 9 -3 26 -6 40 -6z m-82 -85 c3 -9 0 -15 -9 -15 -8
0 -15 7 -15 15 0 8 4 15 9 15 5 0 11 -7 15 -15z m505 -78 c13 -16 -4 -37 -31
-37 -21 0 -23 15 -5 35 15 18 22 18 36 2z m-214 -15 c-3 -3 -11 0 -18 7 -9 10
-8 11 6 5 10 -3 15 -9 12 -12z m-115 -13 c0 -6 -4 -7 -10 -4 -5 3 -10 11 -10
16 0 6 5 7 10 4 6 -3 10 -11 10 -16z m180 1 c0 -5 -8 -10 -17 -10 -15 0 -16 2
-3 10 19 12 20 12 20 0z m50 -10 c0 -5 -2 -10 -4 -10 -3 0 -8 5 -11 10 -3 6
-1 10 4 10 6 0 11 -4 11 -10z m140 -10 c0 -5 -7 -10 -15 -10 -8 0 -15 5 -15
10 0 6 7 10 15 10 8 0 15 -4 15 -10z m133 -10 c-3 -11 -9 -20 -14 -20 -5 0 -9
9 -9 20 0 11 6 20 14 20 9 0 12 -7 9 -20z m157 -26 c0 -8 -4 -12 -10 -9 -5 3
-10 10 -10 16 0 5 5 9 10 9 6 0 10 -7 10 -16z m-285 -14 c-27 -12 -43 -12 -25
0 8 5 22 9 30 9 10 0 8 -3 -5 -9z m105 6 c0 -3 -4 -8 -10 -11 -5 -3 -10 -1
-10 4 0 6 5 11 10 11 6 0 10 -2 10 -4z m50 -44 c0 -15 -11 -21 -27 -15 -12 5
-12 7 -1 14 17 11 28 11 28 1z m47 -24 c-3 -8 -6 -5 -6 6 -1 11 2 17 5 13 3
-3 4 -12 1 -19z m558 -98 c3 -5 1 -10 -4 -10 -6 0 -11 5 -11 10 0 6 2 10 4 10
3 0 8 -4 11 -10z m-520 -460 c3 -5 -1 -10 -9 -10 -9 0 -16 5 -16 10 0 6 4 10
9 10 6 0 13 -4 16 -10z m-1175 -90 c0 -5 -4 -10 -10 -10 -5 0 -10 5 -10 10 0
6 5 10 10 10 6 0 10 -4 10 -10z m-40 -30 c0 -5 -4 -10 -10 -10 -5 0 -10 5 -10
10 0 6 5 10 10 10 6 0 10 -4 10 -10z"/>
<path d="M2080 5500 c0 -5 5 -10 10 -10 6 0 10 5 10 10 0 6 -4 10 -10 10 -5 0
-10 -4 -10 -10z"/>
<path d="M2288 5373 c6 -2 18 -2 25 0 6 3 1 5 -13 5 -14 0 -19 -2 -12 -5z"/>
<path d="M2180 5340 c0 -13 11 -13 30 0 12 8 11 10 -7 10 -13 0 -23 -4 -23
-10z"/>
<path d="M2240 5250 c0 -5 5 -10 11 -10 5 0 7 5 4 10 -3 6 -8 10 -11 10 -2 0
-4 -4 -4 -10z"/>
<path d="M2765 5240 c3 -5 15 -10 26 -10 10 0 19 5 19 10 0 6 -12 10 -26 10
-14 0 -23 -4 -19 -10z"/>
<path d="M2676 5222 c-3 -6 1 -13 10 -16 23 -9 28 -2 10 13 -8 7 -17 8 -20 3z"/>
<path d="M2370 5170 c0 -5 5 -10 10 -10 6 0 10 5 10 10 0 6 -4 10 -10 10 -5 0
-10 -4 -10 -10z"/>
<path d="M2220 5110 c-13 -8 -12 -10 3 -10 9 0 17 5 17 10 0 12 -1 12 -20 0z"/>
<path d="M2111 5076 c-10 -12 -8 -17 10 -26 12 -7 19 -8 15 -2 -3 5 1 12 9 16
8 3 15 10 15 16 0 15 -36 12 -49 -4z"/>
<path d="M3855 5060 c-3 -5 1 -10 10 -10 9 0 13 5 10 10 -3 6 -8 10 -10 10 -2
0 -7 -4 -10 -10z"/>
<path d="M3898 5043 c7 -3 16 -2 19 1 4 3 -2 6 -13 5 -11 0 -14 -3 -6 -6z"/>
<path d="M3928 4958 c9 -9 15 -9 24 0 9 9 7 12 -12 12 -19 0 -21 -3 -12 -12z"/>
<path d="M2260 4840 c0 -5 11 -10 24 -10 14 0 28 5 31 10 4 6 -7 10 -24 10
-17 0 -31 -4 -31 -10z"/>
<path d="M2401 4824 c0 -11 3 -14 6 -6 3 7 2 16 -1 19 -3 4 -6 -2 -5 -13z"/>
<path d="M2325 4780 c-8 -13 25 -13 45 0 12 8 9 10 -12 10 -15 0 -30 -4 -33
-10z"/>
<path d="M4003 4723 c0 -17 53 -17 60 0 4 10 -4 13 -27 13 -19 -1 -33 -6 -33
-13z"/>
<path d="M2400 4669 c0 -18 2 -19 15 -9 15 12 12 30 -6 30 -5 0 -9 -10 -9 -21z"/>
<path d="M2417 4636 c-5 -13 1 -16 29 -16 24 0 34 4 32 13 -7 19 -54 21 -61 3z"/>
<path d="M2480 4601 c0 -6 4 -12 8 -15 13 -8 52 5 46 15 -7 12 -54 12 -54 0z"/>
<path d="M4012 4461 c2 -7 7 -12 11 -12 12 1 9 15 -3 20 -7 2 -11 -2 -8 -8z"/>
<path d="M2640 4431 c0 -5 -18 -11 -40 -15 -44 -7 -52 -20 -17 -30 39 -10 55
-7 53 12 -1 11 5 16 17 14 10 -2 17 3 17 13 0 8 -7 15 -15 15 -8 0 -15 -4 -15
-9z"/>
<path d="M2713 4357 c1 -5 6 -8 10 -8 4 1 18 1 32 1 14 0 25 5 25 10 0 6 -16
10 -35 8 -19 -1 -34 -6 -32 -11z"/>
<path d="M2740 4300 c0 -5 5 -10 10 -10 6 0 10 5 10 10 0 6 -4 10 -10 10 -5 0
-10 -4 -10 -10z"/>
<path d="M2717 4274 c-3 -3 -3 -12 0 -20 6 -16 43 -19 43 -4 0 12 -35 31 -43
24z"/>
<path d="M2795 4220 c8 -13 35 -13 55 0 11 7 5 10 -23 10 -23 0 -36 -4 -32
-10z"/>
<path d="M2870 4140 c-8 -5 -28 -10 -43 -10 -16 0 -26 -4 -22 -10 9 -14 67
-12 87 4 27 20 7 35 -22 16z"/>
<path d="M2872 4023 c-6 -2 -10 -9 -7 -13 7 -11 35 -2 35 11 0 10 -8 10 -28 2z"/>
<path d="M2910 4001 c0 -18 18 -21 30 -6 10 13 9 15 -9 15 -11 0 -21 -4 -21
-9z"/>
<path d="M3753 3984 c-8 -22 5 -30 23 -12 14 14 14 16 -1 21 -9 4 -18 1 -22
-9z"/>
<path d="M2870 3964 c-10 -11 -9 -14 8 -14 25 0 37 16 18 23 -8 3 -20 -1 -26
-9z"/>
<path d="M3907 3883 c-12 -11 -8 -34 8 -49 13 -13 14 -11 8 18 -7 39 -8 40
-16 31z"/>
<path d="M3755 3869 c-4 -6 -5 -12 -2 -15 2 -3 7 2 10 11 7 17 1 20 -8 4z"/>
<path d="M2960 3850 c0 -13 20 -13 40 0 12 8 9 10 -12 10 -16 0 -28 -4 -28
-10z"/>
<path d="M3000 3808 c0 -5 9 -12 20 -15 25 -7 25 -12 3 -29 -16 -12 -16 -13
-2 -14 19 0 31 23 23 44 -6 17 -44 29 -44 14z"/>
<path d="M3710 3795 c-7 -9 -9 -19 -5 -23 4 -4 10 -1 12 6 3 6 11 12 19 12 8
0 14 5 14 10 0 15 -26 12 -40 -5z"/>
<path d="M3180 3780 c0 -5 5 -10 10 -10 6 0 10 5 10 10 0 6 -4 10 -10 10 -5 0
-10 -4 -10 -10z"/>
<path d="M3050 3720 c-9 -6 -10 -10 -3 -10 6 0 15 5 18 10 8 12 4 12 -15 0z"/>
<path d="M3020 3690 c0 -5 7 -10 16 -10 8 0 12 5 9 10 -3 6 -10 10 -16 10 -5
0 -9 -4 -9 -10z"/>
<path d="M3125 3680 c3 -5 10 -10 16 -10 5 0 9 5 9 10 0 6 -7 10 -16 10 -8 0
-12 -4 -9 -10z"/>
<path d="M3200 3679 c0 -5 5 -7 10 -4 6 3 10 8 10 11 0 2 -4 4 -10 4 -5 0 -10
-5 -10 -11z"/>
<path d="M2937 3623 c-4 -3 2 -12 13 -20 26 -18 48 -6 23 13 -21 15 -27 17
-36 7z"/>
<path d="M3018 3613 c7 -3 16 -2 19 1 4 3 -2 6 -13 5 -11 0 -14 -3 -6 -6z"/>
<path d="M3040 3580 c0 -5 5 -10 10 -10 6 0 10 5 10 10 0 6 -4 10 -10 10 -5 0
-10 -4 -10 -10z"/>
<path d="M3005 3560 c3 -6 12 -10 20 -10 7 0 16 -5 18 -10 3 -6 4 -5 3 1 -1 7
-12 16 -25 20 -14 6 -20 5 -16 -1z"/>
<path d="M3408 3533 c7 -3 16 -2 19 1 4 3 -2 6 -13 5 -11 0 -14 -3 -6 -6z"/>
<path d="M3392 3460 c0 -14 2 -19 5 -12 2 6 2 18 0 25 -3 6 -5 1 -5 -13z"/>
<path d="M3600 3440 c0 -5 7 -10 16 -10 8 0 12 5 9 10 -3 6 -10 10 -16 10 -5
0 -9 -4 -9 -10z"/>
<path d="M3478 3416 c-24 -18 -22 -28 4 -24 13 2 24 11 26 21 4 20 -6 21 -30
3z"/>
<path d="M3263 3385 c0 -11 11 -15 36 -15 34 1 35 2 17 15 -26 19 -53 19 -53
0z"/>
<path d="M3107 3334 c-11 -11 5 -34 24 -34 12 0 19 7 19 20 0 19 -28 28 -43
14z"/>
<path d="M480 5200 c0 -5 5 -10 10 -10 6 0 10 5 10 10 0 6 -4 10 -10 10 -5 0
-10 -4 -10 -10z"/>
<path d="M511 5100 c-16 -9 -6 -30 15 -30 15 0 20 25 6 34 -4 2 -14 1 -21 -4z"/>
<path d="M510 5040 c0 -5 7 -10 15 -10 8 0 15 5 15 10 0 6 -7 10 -15 10 -8 0
-15 -4 -15 -10z"/>
<path d="M460 5030 c0 -5 5 -10 10 -10 6 0 10 5 10 10 0 6 -4 10 -10 10 -5 0
-10 -4 -10 -10z"/>
<path d="M455 4960 c3 -5 10 -10 16 -10 5 0 9 5 9 10 0 6 -7 10 -16 10 -8 0
-12 -4 -9 -10z"/>
<path d="M5436 9465 c4 -8 8 -15 10 -15 2 0 4 7 4 15 0 8 -4 15 -10 15 -5 0
-7 -7 -4 -15z"/>
<path d="M5600 8449 c0 -5 5 -7 10 -4 6 3 10 8 10 11 0 2 -4 4 -10 4 -5 0 -10
-5 -10 -11z"/>
<path d="M5646 8412 c-2 -4 -1 -14 5 -22 7 -12 9 -10 9 8 0 23 -5 28 -14 14z"/>
<path d="M4065 8220 c3 -5 10 -10 16 -10 5 0 9 5 9 10 0 6 -7 10 -16 10 -8 0
-12 -4 -9 -10z"/>
<path d="M3905 8200 c3 -5 8 -10 11 -10 2 0 4 5 4 10 0 6 -5 10 -11 10 -5 0
-7 -4 -4 -10z"/>
<path d="M3665 8130 c-3 -5 1 -10 9 -10 9 0 16 5 16 10 0 6 -4 10 -9 10 -6 0
-13 -4 -16 -10z"/>
<path d="M3410 8040 c0 -22 16 -26 40 -10 13 9 13 11 0 20 -24 16 -40 12 -40
-10z"/>
<path d="M3360 8020 c0 -5 4 -10 9 -10 6 0 13 5 16 10 3 6 -1 10 -9 10 -9 0
-16 -4 -16 -10z"/>
<path d="M3310 7954 c-28 -10 -31 -14 -18 -19 10 -4 32 -2 49 4 18 6 43 11 55
11 13 0 24 4 24 9 0 13 -66 10 -110 -5z"/>
<path d="M3160 7850 c0 -5 5 -10 11 -10 5 0 7 5 4 10 -3 6 -8 10 -11 10 -2 0
-4 -4 -4 -10z"/>
<path d="M3460 7800 c0 -5 4 -10 9 -10 6 0 13 5 16 10 3 6 -1 10 -9 10 -9 0
-16 -4 -16 -10z"/>
<path d="M3310 7720 c0 -13 11 -13 30 0 12 8 11 10 -7 10 -13 0 -23 -4 -23
-10z"/>
<path d="M3468 7713 c7 -3 16 -2 19 1 4 3 -2 6 -13 5 -11 0 -14 -3 -6 -6z"/>
<path d="M3358 7678 c9 -9 15 -9 24 0 9 9 7 12 -12 12 -19 0 -21 -3 -12 -12z"/>
<path d="M3290 7660 c-12 -8 -11 -10 7 -10 12 0 25 5 28 10 8 13 -15 13 -35 0z"/>
<path d="M3235 7640 c-3 -5 3 -10 14 -10 12 0 21 5 21 10 0 6 -6 10 -14 10 -8
0 -18 -4 -21 -10z"/>
<path d="M2880 7602 c0 -7 -9 -12 -20 -12 -11 0 -20 -4 -20 -10 0 -13 30 -13
50 0 12 7 12 12 2 22 -9 9 -12 9 -12 0z"/>
<path d="M3178 7603 c7 -3 16 -2 19 1 4 3 -2 6 -13 5 -11 0 -14 -3 -6 -6z"/>
<path d="M3085 7580 c-4 -6 8 -10 29 -10 19 0 38 5 41 10 4 6 -8 10 -29 10
-19 0 -38 -4 -41 -10z"/>
<path d="M3488 7553 c6 -2 18 -2 25 0 6 3 1 5 -13 5 -14 0 -19 -2 -12 -5z"/>
<path d="M2950 7536 c0 -8 3 -17 8 -20 10 -6 43 19 35 27 -12 13 -43 7 -43 -7z"/>
<path d="M2880 7519 c0 -5 5 -7 10 -4 6 3 10 8 10 11 0 2 -4 4 -10 4 -5 0 -10
-5 -10 -11z"/>
<path d="M3390 7520 c0 -5 7 -10 15 -10 8 0 15 5 15 10 0 6 -7 10 -15 10 -8 0
-15 -4 -15 -10z"/>
<path d="M3338 7503 c7 -3 16 -2 19 1 4 3 -2 6 -13 5 -11 0 -14 -3 -6 -6z"/>
<path d="M3030 7490 c-8 -5 -11 -12 -7 -17 5 -4 11 -2 15 4 4 6 16 13 27 16
l20 5 -20 1 c-11 0 -27 -3 -35 -9z"/>
<path d="M3180 7493 c-14 -3 -29 -9 -35 -15 -13 -13 46 -1 60 13 5 5 7 8 5 8
-3 -1 -16 -4 -30 -6z"/>
<path d="M3060 7470 c-12 -8 -12 -10 4 -16 11 -4 24 0 34 10 15 15 15 16 -3
16 -11 0 -27 -4 -35 -10z"/>
<path d="M3390 7455 c-14 -16 -10 -18 14 -9 9 3 16 10 16 15 0 14 -16 11 -30
-6z"/>
<path d="M2926 7435 c-11 -8 -15 -15 -9 -15 7 0 14 4 18 9 3 5 20 7 39 4 19
-3 36 -1 40 6 11 17 -65 13 -88 -4z"/>
<path d="M3320 7420 c0 -5 7 -10 15 -10 8 0 15 5 15 10 0 6 -7 10 -15 10 -8 0
-15 -4 -15 -10z"/>
<path d="M3040 7400 c0 -5 5 -10 10 -10 6 0 10 5 10 10 0 6 -4 10 -10 10 -5 0
-10 -4 -10 -10z"/>
<path d="M3400 7400 c0 -5 4 -10 9 -10 6 0 13 5 16 10 3 6 -1 10 -9 10 -9 0
-16 -4 -16 -10z"/>
<path d="M3290 7386 c0 -10 9 -16 21 -16 24 0 21 23 -4 28 -10 2 -17 -3 -17
-12z"/>
<path d="M3472 7374 c-8 -8 -22 -12 -32 -9 -10 3 -21 1 -25 -4 -3 -6 -21 -10
-40 -9 -19 1 -40 -4 -47 -10 -15 -12 -48 7 -48 27 0 6 -4 11 -10 11 -5 0 -10
-5 -10 -11 0 -8 -4 -8 -14 0 -18 15 -38 11 -54 -12 -11 -14 -11 -21 -1 -33 15
-18 67 -15 219 11 52 9 111 16 131 15 19 0 46 4 60 9 20 8 16 10 -28 10 -29 1
-53 6 -53 11 0 15 -33 11 -48 -6z m-202 -30 c0 -10 -41 -23 -54 -18 -23 9 -20
22 7 26 21 4 47 -1 47 -8z"/>
<path d="M3795 7380 c-3 -5 1 -10 9 -10 9 0 16 5 16 10 0 6 -4 10 -9 10 -6 0
-13 -4 -16 -10z"/>
<path d="M3665 7359 c18 -5 33 -5 39 1 7 7 -4 10 -29 9 -40 -1 -40 -1 -10 -10z"/>
<path d="M2910 7346 c-22 -9 -57 -36 -48 -36 18 0 97 38 87 42 -8 3 -25 0 -39
-6z"/>
<path d="M3120 7340 c-11 -21 -4 -25 24 -14 20 8 21 20 1 28 -9 3 -19 -3 -25
-14z"/>
<path d="M3160 7290 c0 -5 5 -10 10 -10 6 0 10 5 10 10 0 6 -4 10 -10 10 -5 0
-10 -4 -10 -10z"/>
<path d="M2975 7180 c-3 -5 1 -10 9 -10 8 0 18 5 21 10 3 6 -1 10 -9 10 -8 0
-18 -4 -21 -10z"/>
<path d="M2880 7160 c0 -5 9 -10 20 -10 11 0 20 5 20 10 0 6 -9 10 -20 10 -11
0 -20 -4 -20 -10z"/>
<path d="M3053 7103 c9 -2 23 -2 30 0 6 3 -1 5 -18 5 -16 0 -22 -2 -12 -5z"/>
<path d="M3589 7099 c16 -6 28 -6 35 1 7 7 -1 10 -24 9 -33 0 -34 -1 -11 -10z"/>
<path d="M2910 7076 c0 -21 21 -31 31 -15 5 8 3 17 -4 21 -18 12 -27 10 -27
-6z"/>
<path d="M2960 7080 c0 -5 13 -10 29 -10 17 0 33 5 36 10 4 6 -8 10 -29 10
-20 0 -36 -4 -36 -10z"/>
<path d="M3485 7080 c-11 -18 5 -31 26 -20 11 6 17 15 14 21 -8 12 -32 12 -40
-1z"/>
<path d="M3050 7050 c-13 -8 -13 -10 2 -10 9 0 20 5 23 10 8 13 -5 13 -25 0z"/>
<path d="M3433 7053 c-13 -2 -23 -9 -23 -14 0 -14 24 -11 46 6 19 15 16 16
-23 8z"/>
<path d="M3818 7053 c7 -3 16 -2 19 1 4 3 -2 6 -13 5 -11 0 -14 -3 -6 -6z"/>
<path d="M2940 7026 c0 -13 -6 -27 -12 -29 -8 -4 -7 -6 3 -6 18 -1 52 43 42
53 -15 14 -33 4 -33 -18z"/>
<path d="M3620 7040 c19 -13 30 -13 30 0 0 6 -10 10 -22 10 -19 0 -20 -2 -8
-10z"/>
<path d="M3375 7030 c-3 -5 -2 -10 4 -10 5 0 13 5 16 10 3 6 2 10 -4 10 -5 0
-13 -4 -16 -10z"/>
<path d="M3855 7030 c-4 -6 9 -10 32 -10 28 0 34 3 23 10 -20 13 -47 13 -55 0z"/>
<path d="M3307 7023 c-10 -9 -9 -23 1 -23 5 0 17 7 28 15 19 14 19 14 -2 15
-11 0 -24 -3 -27 -7z"/>
<path d="M3225 7000 c-3 -5 3 -10 14 -10 12 0 21 5 21 10 0 6 -6 10 -14 10 -8
0 -18 -4 -21 -10z"/>
<path d="M3020 6980 c0 -5 9 -10 20 -10 11 0 20 5 20 10 0 6 -9 10 -20 10 -11
0 -20 -4 -20 -10z"/>
<path d="M3160 6970 c0 -5 5 -10 10 -10 6 0 10 5 10 10 0 6 -4 10 -10 10 -5 0
-10 -4 -10 -10z"/>
<path d="M3085 6940 c-3 -5 -1 -10 4 -10 6 0 11 5 11 10 0 6 -2 10 -4 10 -3 0
-8 -4 -11 -10z"/>
<path d="M3048 6923 c7 -3 16 -2 19 1 4 3 -2 6 -13 5 -11 0 -14 -3 -6 -6z"/>
<path d="M3128 6843 c7 -3 16 -2 19 1 4 3 -2 6 -13 5 -11 0 -14 -3 -6 -6z"/>
<path d="M3050 6650 c0 -5 7 -7 15 -4 8 4 15 8 15 10 0 2 -7 4 -15 4 -8 0 -15
-4 -15 -10z"/>
<path d="M3085 6610 c3 -5 13 -10 21 -10 8 0 14 5 14 10 0 6 -9 10 -21 10 -11
0 -17 -4 -14 -10z"/>
<path d="M3068 6463 c7 -3 16 -2 19 1 4 3 -2 6 -13 5 -11 0 -14 -3 -6 -6z"/>
<path d="M3925 6460 c3 -5 8 -10 11 -10 2 0 4 5 4 10 0 6 -5 10 -11 10 -5 0
-7 -4 -4 -10z"/>
<path d="M4000 6460 c0 -5 9 -10 20 -10 11 0 20 5 20 10 0 6 -9 10 -20 10 -11
0 -20 -4 -20 -10z"/>
<path d="M4480 6360 c0 -5 5 -10 11 -10 5 0 7 5 4 10 -3 6 -8 10 -11 10 -2 0
-4 -4 -4 -10z"/>
<path d="M5440 6154 c-19 -13 -42 -24 -52 -24 -10 0 -18 -9 -20 -22 -2 -15
-11 -24 -25 -26 -13 -2 -23 -10 -23 -18 0 -8 -8 -14 -19 -14 -24 0 -52 -31
-33 -37 6 -3 12 -9 12 -15 0 -6 -6 -8 -14 -5 -8 3 -17 -1 -20 -9 -3 -8 -15
-14 -26 -14 -11 0 -20 -4 -20 -10 0 -5 5 -10 10 -10 6 0 10 -4 10 -10 0 -5 -7
-10 -15 -10 -8 0 -15 -4 -15 -9 0 -4 -10 -19 -22 -33 -95 -104 -128 -170 -128
-258 0 -33 4 -68 9 -78 5 -9 32 -64 60 -122 66 -133 68 -136 116 -143 92 -13
149 -27 165 -42 38 -34 53 -7 52 93 -2 79 10 85 77 37 48 -34 78 -39 67 -10
-8 23 28 45 74 45 44 0 49 11 7 16 -13 1 -40 9 -61 18 l-38 16 20 25 c15 19
20 38 18 70 -3 35 1 50 18 68 16 17 20 30 15 48 -12 41 -10 49 8 42 13 -5 15
-2 11 15 -4 12 -2 22 4 22 6 0 7 7 4 16 -4 9 -1 24 6 32 11 13 10 15 -4 9 -28
-10 -30 9 -4 27 17 11 23 22 19 36 -4 17 -1 20 25 20 22 0 31 6 35 21 5 17 11
20 32 16 25 -4 27 -2 23 25 -4 21 -1 27 9 24 7 -3 13 -3 13 0 0 13 -25 50 -44
65 -12 10 -21 29 -21 45 0 24 -8 32 -59 58 -53 26 -63 28 -90 17 -24 -9 -33
-8 -41 1 -18 23 -87 19 -125 -8z m20 -513 c0 -27 -19 -36 -37 -18 -18 18 -9
37 18 37 12 0 19 -7 19 -19z m75 -51 c18 -34 18 -40 5 -40 -18 0 -63 47 -56
59 13 20 35 12 51 -19z m35 -64 c0 -11 -19 -15 -25 -6 -3 5 1 10 9 10 9 0 16
-2 16 -4z m-130 -51 c0 -14 -4 -25 -10 -25 -5 0 -10 11 -10 25 0 14 5 25 10
25 6 0 10 -11 10 -25z"/>
<path d="M4725 6160 c4 -6 11 -8 16 -5 14 9 11 15 -7 15 -8 0 -12 -5 -9 -10z"/>
<path d="M4800 6116 c0 -8 7 -16 15 -20 17 -6 18 -4 9 18 -8 20 -24 21 -24 2z"/>
<path d="M4746 6095 c-6 -17 17 -31 34 -20 8 5 8 11 -1 21 -15 18 -25 18 -33
-1z"/>
<path d="M4791 6051 c-19 -12 -4 -31 25 -31 19 0 25 5 22 17 -4 20 -27 27 -47
14z"/>
<path d="M4800 5320 c0 -5 5 -10 10 -10 6 0 10 5 10 10 0 6 -4 10 -10 10 -5 0
-10 -4 -10 -10z"/>
<path d="M5220 5243 c0 -4 14 -36 31 -70 31 -62 51 -78 63 -48 4 10 -1 15 -15
15 -31 0 -17 24 17 31 l29 6 -29 12 c-16 6 -40 23 -52 36 -22 24 -44 33 -44
18z"/>
<path d="M4868 5183 c7 -3 16 -2 19 1 4 3 -2 6 -13 5 -11 0 -14 -3 -6 -6z"/>
<path d="M4878 5118 c9 -9 15 -9 24 0 9 9 7 12 -12 12 -19 0 -21 -3 -12 -12z"/>
<path d="M5047 4774 c-10 -11 3 -24 24 -24 23 0 25 15 3 24 -19 7 -19 7 -27 0z"/>
<path d="M10 4620 c0 -5 5 -10 10 -10 6 0 10 5 10 10 0 6 -4 10 -10 10 -5 0
-10 -4 -10 -10z"/>
<path d="M88 4613 c-16 -2 -28 -8 -28 -13 0 -12 24 -19 86 -26 33 -4 60 -14
70 -25 17 -19 40 -24 68 -13 21 8 8 34 -17 34 -19 0 -20 1 -2 20 17 19 17 20
-1 19 -10 0 -41 -4 -67 -8 -37 -6 -50 -5 -54 5 -3 8 -10 13 -17 13 -6 -1 -23
-4 -38 -6z"/>
<path d="M10 4554 c0 -8 5 -12 10 -9 6 3 10 10 10 16 0 5 -4 9 -10 9 -5 0 -10
-7 -10 -16z"/>
<path d="M90 4540 c0 -5 4 -10 9 -10 6 0 13 5 16 10 3 6 -1 10 -9 10 -9 0 -16
-4 -16 -10z"/>
<path d="M5070 4520 c0 -5 7 -10 16 -10 8 0 12 5 9 10 -3 6 -10 10 -16 10 -5
0 -9 -4 -9 -10z"/>
<path d="M90 4500 c20 -13 33 -13 25 0 -3 6 -14 10 -23 10 -15 0 -15 -2 -2
-10z"/>
<path d="M5135 4500 c3 -5 10 -10 16 -10 5 0 9 5 9 10 0 6 -7 10 -16 10 -8 0
-12 -4 -9 -10z"/>
<path d="M30 4480 c0 -5 9 -10 20 -10 11 0 20 5 20 10 0 6 -9 10 -20 10 -11 0
-20 -4 -20 -10z"/>
<path d="M5160 4280 c0 -5 5 -10 10 -10 6 0 10 5 10 10 0 6 -4 10 -10 10 -5 0
-10 -4 -10 -10z"/>
<path d="M5280 4160 c0 -5 5 -10 11 -10 5 0 7 5 4 10 -3 6 -8 10 -11 10 -2 0
-4 -4 -4 -10z"/>
<path d="M5280 4122 c0 -4 9 -13 20 -19 20 -13 37 -2 25 17 -7 12 -45 14 -45
2z"/>
<path d="M4575 2650 c-3 -5 1 -10 9 -10 8 0 18 5 21 10 3 6 -1 10 -9 10 -8 0
-18 -4 -21 -10z"/>
<path d="M3680 2120 c0 -5 15 -10 33 -10 24 0 28 3 17 10 -20 13 -50 13 -50 0z"/>
<path d="M3598 2013 c-26 -7 -22 -20 7 -25 19 -4 25 -1 25 13 0 19 -2 20 -32
12z"/>
<path d="M3700 2010 c20 -13 33 -13 25 0 -3 6 -14 10 -23 10 -15 0 -15 -2 -2
-10z"/>
<path d="M3520 1960 c0 -5 5 -10 10 -10 6 0 9 -3 9 -7 -3 -19 2 -33 11 -33 18
0 11 35 -10 48 -12 7 -20 8 -20 2z"/>
<path d="M3640 1931 c0 -5 5 -13 10 -16 6 -3 10 -2 10 4 0 5 -4 13 -10 16 -5
3 -10 2 -10 -4z"/>
<path d="M3590 1900 c0 -5 5 -10 10 -10 6 0 10 -5 10 -11 0 -6 -9 -9 -20 -6
-17 4 -18 2 -10 -14 10 -17 36 -17 50 1 3 3 16 14 30 23 l25 17 -31 -6 c-19
-3 -34 -2 -38 5 -9 14 -26 14 -26 1z"/>
<path d="M3663 1855 c0 -18 19 -15 25 3 2 7 -3 12 -10 12 -8 0 -15 -7 -15 -15z"/>
<path d="M3750 1851 c0 -5 -13 -12 -30 -16 -46 -10 -46 -25 -1 -25 23 0 41 4
41 10 0 5 12 13 26 16 19 5 22 9 12 15 -17 12 -48 11 -48 0z"/>
<path d="M4512 1801 c2 -7 7 -12 11 -12 12 1 9 15 -3 20 -7 2 -11 -2 -8 -8z"/>
<path d="M4125 1780 c-3 -5 -1 -10 4 -10 6 0 11 5 11 10 0 6 -2 10 -4 10 -3 0
-8 -4 -11 -10z"/>
<path d="M4260 1740 c0 -5 5 -10 10 -10 6 0 10 5 10 10 0 6 -4 10 -10 10 -5 0
-10 -4 -10 -10z"/>
<path d="M4080 1723 c0 -13 5 -23 10 -23 13 0 13 11 0 30 -8 12 -10 11 -10 -7z"/>
<path d="M4580 1694 c0 -8 5 -12 10 -9 6 3 10 10 10 16 0 5 -4 9 -10 9 -5 0
-10 -7 -10 -16z"/>
<path d="M2720 760 c0 -5 7 -10 15 -10 8 0 15 5 15 10 0 6 -7 10 -15 10 -8 0
-15 -4 -15 -10z"/>
<path d="M2725 710 c-3 -5 1 -10 10 -10 9 0 13 5 10 10 -3 6 -8 10 -10 10 -2
0 -7 -4 -10 -10z"/>
</g>
</svg>
